<?xml version="1.0" standalone="no"?>
<!DOCTYPE svg PUBLIC "-//W3C//DTD SVG 20010904//EN"
 "http://www.w3.org/TR/2001/REC-SVG-20010904/DTD/svg10.dtd">
<svg version="1.0" xmlns="http://www.w3.org/2000/svg"
 width="520.000000pt" height="520.000000pt" viewBox="0 0 520.000000 520.000000"
 preserveAspectRatio="xMidYMid meet">
<metadata>
Created by potrace 1.14, written by Peter Selinger 2001-2017
</metadata>
<g transform="translate(0.000000,520.000000) scale(0.100000,-0.100000)"
fill="#000000" stroke="none">
<path d="M0 2600 l0 -2600 1264 0 c997 0 1265 3 1269 13 4 9 6 9 6 0 1 -10
292 -12 1331 -13 l1330 0 0 2600 0 2600 -2600 0 -2600 0 0 -2600z m1760 2036
c0 -2 -7 -7 -16 -10 -8 -3 -12 -2 -9 4 6 10 25 14 25 6z m-90 -16 c0 -5 -2
-10 -4 -10 -3 0 -8 5 -11 10 -3 6 -1 10 4 10 6 0 11 -4 11 -10z m-40 -10 c0
-5 -2 -10 -4 -10 -3 0 -8 5 -11 10 -3 6 -1 10 4 10 6 0 11 -4 11 -10z m-175
-60 c3 -5 1 -10 -4 -10 -6 0 -11 5 -11 10 0 6 2 10 4 10 3 0 8 -4 11 -10z
m-169 -107 c-10 -10 -19 5 -10 18 6 11 8 11 12 0 2 -7 1 -15 -2 -18z m-29 -15
c-3 -8 -6 -5 -6 6 -1 11 2 17 5 13 3 -3 4 -12 1 -19z m-582 -18 c-3 -5 -11
-10 -16 -10 -6 0 -7 5 -4 10 3 6 11 10 16 10 6 0 7 -4 4 -10z m560 0 c3 -5 1
-10 -4 -10 -6 0 -11 5 -11 10 0 6 2 10 4 10 3 0 8 -4 11 -10z m545 -4 c0 -3
-4 -8 -10 -11 -5 -3 -10 -1 -10 4 0 6 5 11 10 11 6 0 10 -2 10 -4z m-55 -16
c3 -5 1 -10 -4 -10 -6 0 -11 5 -11 10 0 6 2 10 4 10 3 0 8 -4 11 -10z m-25
-10 c0 -5 -5 -10 -11 -10 -5 0 -7 5 -4 10 3 6 8 10 11 10 2 0 4 -4 4 -10z
m-30 -9 c0 -5 -9 -11 -20 -14 -11 -3 -20 -1 -20 3 0 5 8 11 18 13 9 3 18 5 20
6 1 0 2 -3 2 -8z m-500 -31 c0 -5 -4 -10 -10 -10 -5 0 -10 5 -10 10 0 6 5 10
10 10 6 0 10 -4 10 -10z m430 3 c0 -5 -14 -16 -30 -25 -38 -21 -40 -9 -2 14
33 20 32 20 32 11z m-455 -23 c3 -5 1 -10 -4 -10 -6 0 -11 5 -11 10 0 6 2 10
4 10 3 0 8 -4 11 -10z m-32 -44 c-10 -13 -19 -23 -21 -21 -5 5 22 45 31 45 4
0 0 -11 -10 -24z m57 0 c0 -2 -7 -9 -15 -16 -13 -11 -14 -10 -9 4 5 14 24 23
24 12z m300 -31 c-7 -8 -17 -15 -22 -15 -11 0 14 29 26 30 5 0 3 -7 -4 -15z
m-399 -38 c-16 -16 -25 -1 -10 16 8 8 16 11 18 5 2 -5 -2 -15 -8 -21z m57 13
c-7 -10 -14 -18 -15 -16 -6 6 9 36 18 36 5 0 4 -9 -3 -20z m286 -31 c-15 -16
-30 -26 -33 -23 -3 2 7 15 22 28 15 13 23 27 19 31 -4 5 -1 5 6 1 11 -6 7 -15
-14 -37z m-871 -9 c-3 -11 -10 -23 -16 -27 -5 -3 -8 -2 -5 3 3 5 8 17 11 27 9
24 16 22 10 -3z m548 -13 c-10 -9 -11 -8 -5 6 3 10 9 15 12 12 3 -3 0 -11 -7
-18z m164 13 c3 -5 1 -10 -4 -10 -6 0 -11 5 -11 10 0 6 2 10 4 10 3 0 8 -4 11
-10z m385 5 c0 -2 -10 -9 -22 -15 -22 -11 -22 -10 -4 4 21 17 26 19 26 11z
m-590 -19 c0 -2 -7 -6 -15 -10 -8 -3 -15 -1 -15 4 0 6 7 10 15 10 8 0 15 -2
15 -4z m1045 -10 c69 -14 75 -17 75 -34 0 -13 -2 -14 -9 -4 -10 17 -59 26
-138 25 -44 -1 -63 3 -63 12 0 13 76 13 135 1z m-851 -11 c-4 -8 -13 -15 -22
-15 -13 0 -12 3 4 15 24 18 25 18 18 0z m130 6 c3 -5 -1 -11 -9 -14 -9 -4 -12
-1 -8 9 6 16 10 17 17 5z m576 -1 c0 -5 -16 -12 -35 -16 -20 -4 -32 -10 -28
-17 3 -6 1 -7 -5 -3 -17 11 -105 -31 -96 -45 4 -8 3 -9 -5 -5 -13 8 -78 -42
-73 -56 1 -5 -3 -6 -9 -2 -8 5 -10 2 -6 -9 3 -8 -1 -21 -9 -27 -8 -7 -14 -9
-14 -5 0 4 -7 2 -15 -5 -18 -15 -20 -35 -3 -24 7 4 8 3 4 -5 -4 -6 -11 -9 -15
-6 -11 6 -33 -44 -25 -57 4 -6 2 -8 -4 -4 -12 7 -26 -29 -17 -44 3 -5 2 -10
-3 -10 -5 0 -10 -21 -11 -47 -1 -27 -4 -61 -6 -76 -4 -30 31 -168 44 -177 5
-3 15 -18 24 -35 14 -27 67 -85 67 -73 0 2 -11 37 -25 77 -28 85 -33 142 -18
226 21 114 75 204 163 274 28 22 68 45 88 51 56 17 149 29 172 23 39 -10 19
-21 -42 -22 -90 -1 -166 -32 -235 -97 -68 -63 -66 -73 2 -14 55 48 106 75 155
83 29 5 28 4 -10 -8 -111 -37 -208 -141 -233 -251 -17 -73 -13 -116 16 -174
l22 -45 6 91 c12 164 68 261 183 319 61 31 77 35 140 33 64 -2 66 -2 16 -5
-90 -5 -126 -13 -109 -24 10 -8 7 -8 -10 -4 -17 5 -22 4 -16 -5 5 -8 4 -11 -1
-7 -13 7 -90 -54 -121 -96 -17 -23 -23 -40 -19 -60 3 -15 2 -26 -2 -24 -4 3
-8 -13 -9 -36 -2 -22 0 -38 3 -35 11 11 33 99 24 93 -19 -12 -9 10 24 56 38
51 108 97 158 103 18 2 32 9 31 15 -4 17 27 13 34 -5 4 -12 8 -13 14 -3 6 10
11 10 24 -1 13 -10 13 -15 3 -21 -9 -6 -6 -9 10 -9 12 0 22 4 22 10 0 5 7 6
17 3 11 -4 14 -3 9 5 -4 7 -2 12 3 12 6 0 11 -9 11 -21 0 -11 5 -17 10 -14 6
3 10 1 10 -6 0 -7 11 -10 30 -7 24 4 27 2 19 -9 -9 -10 -7 -13 9 -13 11 0 22
-5 24 -10 2 -6 21 -13 42 -17 32 -5 38 -4 31 8 -7 12 -6 12 7 1 15 -12 51 -12
63 0 4 3 15 4 26 1 18 -5 18 -6 3 -18 -10 -7 -26 -10 -37 -7 -16 4 -19 2 -13
-13 5 -15 4 -16 -9 -5 -13 11 -15 10 -9 -6 5 -18 5 -18 -10 0 -8 10 -20 15
-26 11 -24 -15 85 -50 118 -38 10 4 10 11 -3 31 -16 27 -16 27 2 6 10 -12 29
-26 41 -33 13 -7 19 -17 15 -26 -4 -13 -8 -13 -21 -3 -13 11 -14 11 -7 -2 7
-13 6 -13 -7 -2 -12 9 -18 10 -23 2 -4 -7 -16 -10 -26 -7 -10 3 -21 2 -24 -3
-6 -10 19 -20 49 -20 15 0 25 -9 32 -28 10 -25 8 -28 -10 -30 -17 -1 -18 1 -6
8 9 6 10 10 3 10 -22 0 -25 -21 -4 -27 11 -3 19 -8 16 -12 -2 -4 14 -8 36 -9
22 -2 39 2 39 8 0 5 -4 10 -10 10 -5 0 -10 7 -10 15 0 8 -4 15 -10 15 -5 0
-10 5 -10 10 0 21 22 9 41 -24 14 -24 25 -33 38 -29 13 3 20 -2 24 -17 3 -14
1 -20 -6 -17 -7 3 -11 11 -9 18 2 8 -7 3 -19 -10 -20 -21 -23 -22 -34 -7 -13
17 -26 22 -24 9 4 -25 -3 -34 -21 -28 -11 4 -20 2 -20 -4 0 -6 7 -12 15 -12
28 -3 33 -4 41 -11 3 -4 -3 -6 -15 -3 -11 2 -21 0 -21 -6 0 -5 11 -9 25 -9 28
0 31 -9 13 -29 -11 -11 -10 -13 5 -8 11 4 17 1 17 -9 0 -8 -4 -13 -9 -9 -5 3
-13 0 -17 -6 -4 -8 -3 -9 4 -5 7 4 12 2 12 -3 0 -6 4 -10 9 -8 5 1 9 -2 8 -8
0 -5 -8 -9 -19 -7 -24 4 -23 -19 1 -40 18 -16 20 -16 23 0 3 13 5 11 10 -7 5
-18 2 -24 -13 -28 -20 -6 -20 -36 1 -70 10 -17 10 -17 8 2 -2 11 -7 23 -11 26
-5 3 -2 9 5 11 9 4 14 -2 16 -18 1 -13 2 -27 3 -31 4 -23 -2 -85 -8 -80 -3 4
-12 2 -20 -4 -9 -9 -13 -8 -13 0 0 6 7 14 15 17 8 4 15 18 14 33 0 25 0 25 -9
4 -5 -13 -12 -23 -15 -23 -4 0 -3 6 1 13 5 8 4 9 -4 2 -6 -5 -12 -28 -14 -49
-2 -31 1 -40 15 -42 9 -1 17 4 17 11 0 8 4 16 8 19 5 3 8 -8 7 -24 -1 -17 2
-30 7 -30 4 0 8 7 8 15 0 8 6 15 14 15 9 0 14 9 13 20 -1 11 -5 20 -9 20 -4 0
-8 4 -8 10 0 5 6 7 14 4 18 -7 15 44 -4 56 -8 5 -7 9 5 13 14 6 14 9 0 31 -14
20 -14 24 -1 29 20 8 23 -5 22 -110 -1 -60 2 -89 9 -83 6 4 19 9 29 11 20 4
31 35 15 45 -5 3 -5 12 1 23 5 10 7 21 5 25 -3 3 -2 4 1 2 3 -2 4 -6 2 -9 -1
-2 4 -12 12 -22 9 -11 10 -16 2 -11 -9 5 -11 1 -8 -16 3 -13 5 -32 6 -43 1
-11 4 -14 7 -7 2 6 11 12 19 12 10 0 12 -5 8 -12 -6 -10 -5 -10 8 -1 8 7 18
10 21 6 4 -3 7 0 7 8 1 10 5 8 15 -5 15 -20 15 -20 15 0 0 16 2 17 10 4 17
-26 12 -29 -50 -32 -34 -2 -59 -7 -58 -13 2 -5 6 -9 10 -8 5 2 8 -2 8 -7 0 -6
-7 -10 -15 -10 -8 0 -15 -9 -15 -20 0 -11 -5 -20 -11 -20 -6 0 -8 8 -4 19 5
17 1 20 -25 19 -32 -1 -50 -25 -50 -67 0 -16 5 -17 33 -11 17 4 31 12 30 18
-2 7 4 12 12 12 8 0 14 -6 12 -12 -1 -10 29 -14 120 -15 66 -1 154 -7 195 -13
40 -6 87 -12 103 -13 17 -2 46 -7 66 -11 32 -7 35 -10 31 -34 -5 -26 -5 -26
-13 -3 -5 12 -13 20 -18 17 -5 -4 -20 -2 -34 3 -21 8 -26 6 -32 -12 -7 -22 -7
-22 -15 3 -5 16 -8 19 -9 8 -1 -9 -6 -20 -13 -24 -8 -5 -9 0 -6 14 4 12 2 22
-3 22 -5 0 -9 -7 -9 -16 0 -8 -5 -12 -10 -9 -6 4 -8 10 -5 15 3 5 1 11 -5 15
-5 3 -10 -3 -10 -13 0 -16 -5 -19 -22 -14 -16 4 -19 2 -13 -9 8 -12 6 -12 -8
0 -13 10 -15 17 -6 27 7 9 8 14 1 14 -5 0 -12 -7 -16 -15 -3 -8 -15 -15 -26
-15 -17 0 -20 4 -15 21 5 15 4 19 -4 15 -6 -4 -11 -14 -11 -22 0 -8 -5 -14
-11 -14 -6 0 -8 9 -4 23 5 21 5 20 -10 -3 -9 -14 -14 -17 -11 -8 9 32 -10 27
-23 -5 -7 -18 -17 -41 -22 -52 l-9 -20 4 20 c7 32 13 81 9 67 -3 -8 -11 -11
-18 -8 -9 3 -12 0 -9 -8 3 -8 1 -17 -5 -21 -7 -3 -8 0 -5 9 4 11 0 16 -15 16
-12 0 -21 -6 -21 -15 0 -13 -4 -14 -20 -5 -15 8 -20 8 -20 -2 0 -9 -3 -9 -11
-1 -9 9 -15 8 -25 -2 -8 -7 -14 -16 -14 -20 0 -3 -8 -17 -17 -32 -28 -42 -25
-49 21 -48 23 1 48 5 56 10 7 5 11 4 8 -1 -4 -5 11 -9 33 -9 21 0 39 4 39 9 0
5 7 3 15 -4 12 -10 15 -10 16 1 0 11 2 11 6 1 4 -10 9 -9 19 5 10 12 13 14 12
4 -2 -12 11 -15 64 -15 38 -1 68 -3 68 -6 0 -3 12 -5 28 -6 15 0 43 -4 62 -9
19 -4 43 -7 53 -7 9 0 17 -3 17 -8 0 -4 11 -7 25 -5 14 1 25 -2 25 -7 0 -6 7
-8 15 -4 8 3 15 1 15 -5 0 -6 7 -9 15 -5 8 3 15 1 15 -4 0 -5 7 -7 15 -4 8 4
15 1 15 -6 0 -6 5 -8 10 -5 6 3 10 1 10 -5 0 -7 7 -10 15 -6 19 7 21 -34 3
-52 -8 -8 -8 -12 -1 -12 6 0 16 14 22 30 13 37 21 39 17 3 -2 -18 -12 -33 -27
-40 -27 -14 -35 -3 -20 26 7 13 8 22 1 26 -5 3 -10 0 -10 -8 0 -8 -8 -21 -17
-28 -15 -12 -16 -12 -10 4 17 44 17 49 -3 17 -13 -22 -18 -27 -15 -12 5 15 2
22 -9 22 -8 0 -17 -8 -19 -17 -3 -13 -5 -11 -7 7 -1 23 -2 23 -10 5 -7 -16 -9
-17 -9 -3 -1 9 -6 20 -13 24 -8 5 -9 2 -5 -9 3 -9 2 -19 -3 -22 -6 -4 -10 4
-11 17 0 22 -1 22 -9 3 -8 -19 -9 -19 -9 3 -1 12 -5 22 -11 22 -5 0 -11 -10
-11 -22 -2 -21 -2 -21 -7 2 -4 23 -5 24 -12 5 -8 -19 -8 -19 -18 5 -9 22 -11
22 -12 5 -1 -13 -4 -15 -7 -6 -4 9 -7 10 -13 2 -9 -16 -40 -3 -33 15 3 8 1 14
-5 14 -6 0 -12 -6 -14 -12 -3 -8 -22 -13 -47 -13 -32 -1 -40 2 -36 13 4 12 2
12 -8 4 -8 -7 -18 -8 -22 -4 -5 4 -5 1 -1 -5 4 -8 1 -13 -8 -13 -9 0 -16 9
-16 20 0 11 -4 20 -10 20 -5 0 -7 -6 -4 -14 4 -11 -4 -14 -32 -12 -39 2 -64
-11 -67 -34 -2 -8 -9 -24 -16 -35 -11 -17 -12 -17 -7 -2 18 56 18 67 2 67 -9
0 -16 -6 -16 -12 0 -10 -3 -9 -9 1 -10 15 -51 6 -51 -12 0 -7 -4 -6 -9 2 -8
12 -15 13 -35 3 -21 -9 -27 -9 -35 6 -6 10 -11 12 -11 5 0 -7 -6 -13 -14 -13
-7 0 -34 -20 -59 -44 -28 -27 -72 -54 -114 -71 -63 -26 -82 -28 -263 -35 -171
-5 -202 -9 -252 -29 -56 -23 -71 -49 -21 -36 14 3 107 6 208 5 192 0 288 15
377 59 21 10 35 14 32 10 -6 -11 10 -12 20 -1 4 4 17 7 29 8 12 1 40 4 62 8
22 3 60 8 83 11 27 2 50 11 58 22 12 16 13 16 8 1 -5 -14 1 -17 33 -16 21 0
43 0 48 -2 28 -7 55 1 56 18 1 16 2 16 6 0 2 -10 14 -18 26 -19 55 -2 116 -10
157 -20 25 -6 54 -13 65 -16 11 -2 26 -5 33 -5 6 -1 12 -4 12 -8 0 -4 6 -7 13
-8 42 -3 57 -7 57 -15 0 -4 5 -5 10 -2 6 3 10 2 10 -3 0 -12 56 -33 64 -25 3
4 6 1 6 -5 0 -6 16 -16 35 -23 19 -7 35 -17 35 -23 0 -5 3 -7 6 -3 6 6 17 -2
59 -41 14 -13 25 -20 25 -17 0 3 26 -21 58 -52 33 -32 57 -61 56 -64 -2 -3 6
-16 17 -27 11 -12 17 -22 13 -22 -4 0 3 -8 14 -19 12 -10 19 -21 15 -25 -3 -3
0 -6 7 -6 12 0 12 -2 1 -12 -10 -10 -15 -10 -18 -1 -23 62 -143 193 -228 249
-33 21 -62 42 -65 45 -7 9 -175 75 -225 88 -72 18 -210 39 -242 35 -7 -1 -17
-2 -23 -3 -5 0 -10 -8 -10 -16 0 -17 26 -20 35 -5 4 7 11 8 18 2 21 -17 107
-24 107 -10 0 8 4 7 10 -3 5 -9 27 -20 47 -23 106 -19 311 -109 305 -134 -1
-8 2 -11 8 -7 5 3 10 1 10 -5 0 -6 5 -8 10 -5 6 3 10 1 10 -5 0 -6 5 -8 12 -4
7 5 9 2 5 -9 -4 -10 -2 -14 6 -12 13 5 73 -43 65 -51 -3 -2 -15 5 -28 16 -30
26 -40 26 -14 0 11 -11 31 -22 44 -25 14 -3 26 -9 28 -15 2 -6 10 -17 18 -25
8 -7 10 -16 5 -19 -5 -4 -12 -1 -14 4 -3 6 -4 5 -3 -2 2 -7 10 -12 19 -12 10
1 13 -4 10 -14 -4 -10 -2 -13 5 -8 8 5 10 2 6 -9 -4 -9 -3 -15 2 -14 20 3 34
-2 34 -12 0 -6 -7 -8 -16 -5 -8 3 -12 2 -9 -4 3 -6 12 -10 19 -10 17 0 40 -45
33 -64 -4 -9 -2 -16 4 -16 6 0 7 -4 4 -10 -3 -5 0 -10 7 -10 9 0 9 -3 -2 -10
-13 -9 -7 -14 13 -11 4 0 7 -3 7 -9 0 -5 -5 -10 -12 -10 -7 0 -5 -5 4 -12 22
-17 35 -98 16 -99 -7 0 -4 -4 7 -9 17 -7 17 -9 3 -9 -10 -1 -18 -5 -18 -11 0
-5 8 -10 18 -11 12 0 13 -2 3 -6 -11 -5 -11 -7 0 -14 11 -7 10 -9 -3 -9 -21 0
-23 -20 -5 -39 10 -11 10 -13 0 -7 -7 4 -13 2 -13 -3 0 -6 5 -11 10 -11 6 0
10 -8 10 -17 0 -15 -2 -16 -10 -3 -8 12 -10 11 -10 -7 0 -12 5 -23 11 -25 8
-3 7 -9 -3 -19 -8 -8 -13 -20 -10 -28 3 -10 0 -11 -9 -5 -11 6 -10 3 1 -11 8
-10 10 -16 4 -12 -7 4 -24 -21 -44 -66 -45 -102 -45 -101 -32 -93 8 5 10 2 6
-9 -5 -13 -9 -13 -22 -3 -13 11 -15 10 -9 -5 9 -24 -2 -47 -19 -40 -10 4 -12
0 -7 -13 4 -11 3 -15 -4 -11 -6 4 -14 -4 -17 -18 -4 -14 -10 -23 -15 -21 -5 3
-11 -3 -14 -14 -3 -11 -11 -20 -19 -19 -10 0 -10 2 0 6 6 2 12 9 12 14 0 17
-21 -2 -31 -28 -6 -16 -15 -23 -24 -20 -10 4 -12 1 -8 -10 5 -13 2 -15 -11
-10 -11 5 -15 3 -10 -5 5 -8 2 -9 -10 -5 -13 5 -17 3 -13 -7 6 -15 -18 -30
-33 -21 -4 3 -11 -2 -14 -11 -4 -9 -13 -14 -21 -10 -8 3 -14 2 -14 -2 3 -19
-2 -25 -11 -12 -8 13 -10 13 -10 -1 0 -19 -30 -34 -31 -16 0 9 -2 9 -6 -1 -2
-6 -9 -10 -14 -6 -5 3 -9 0 -9 -6 0 -7 -7 -9 -16 -6 -8 3 -13 2 -10 -3 3 -5
-9 -12 -27 -15 -17 -3 -43 -9 -57 -12 -86 -21 -216 -22 -203 -1 4 7 -1 6 -10
-2 -15 -12 -30 -11 -105 4 -48 10 -96 23 -107 28 -22 12 -42 18 -67 20 -9 1
-15 4 -13 7 2 3 -25 21 -61 39 -35 18 -81 48 -101 67 -68 60 -123 119 -129
137 -3 9 -10 17 -15 17 -5 0 -9 5 -9 12 0 6 -6 19 -14 27 -38 44 -95 291 -67
291 6 0 11 6 11 14 0 7 16 45 35 82 36 72 42 89 25 79 -19 -12 -63 -97 -64
-123 -1 -16 -6 -26 -13 -24 -10 1 -13 -20 -13 -81 0 -275 243 -535 581 -622
81 -20 111 -23 216 -19 88 3 140 9 183 24 32 11 64 20 70 20 5 0 37 13 70 29
33 16 60 27 60 24 0 -2 7 3 16 12 9 9 29 24 43 33 34 22 79 61 105 91 12 13
33 37 48 55 15 17 30 39 34 48 6 19 34 25 34 7 0 -5 -5 -7 -12 -3 -8 5 -9 2
-5 -9 4 -11 1 -17 -8 -17 -9 0 -12 -6 -8 -17 4 -11 3 -14 -5 -9 -7 4 -12 2
-12 -4 0 -15 -26 -41 -34 -33 -3 4 -6 -1 -6 -10 0 -10 -4 -17 -10 -17 -5 0
-10 -7 -10 -16 0 -8 -4 -12 -10 -9 -5 3 -10 1 -10 -4 0 -6 -8 -11 -17 -11 -9
0 -14 -3 -10 -6 7 -8 -17 -34 -32 -34 -6 0 -11 -4 -11 -10 0 -5 -7 -10 -15
-10 -8 0 -15 -5 -15 -12 0 -6 -3 -9 -6 -5 -3 3 -14 -2 -25 -11 -11 -9 -21 -15
-23 -12 -1 3 -11 -3 -21 -13 -9 -10 -24 -16 -31 -13 -8 3 -14 1 -14 -3 0 -12
-120 -52 -131 -45 -5 3 -9 1 -9 -5 0 -5 -8 -10 -17 -10 -10 0 -34 -3 -53 -7
-42 -8 -200 -9 -255 -2 -366 50 -674 359 -675 678 0 108 51 248 118 322 19 21
33 40 30 43 -7 7 -102 -41 -118 -59 -8 -10 -24 -22 -36 -26 -32 -13 -90 -88
-108 -143 -21 -62 -21 -219 0 -301 8 -33 32 -95 52 -136 20 -41 38 -78 40 -82
2 -3 -3 -8 -10 -11 -7 -2 -5 -3 5 -1 9 1 22 -6 28 -17 12 -23 1 -48 -12 -28
-6 10 -9 10 -9 2 0 -17 21 -28 29 -14 5 7 26 -9 58 -43 28 -30 49 -57 46 -59
-2 -3 5 -8 16 -12 21 -6 29 -25 11 -25 -5 0 -10 -5 -10 -11 0 -8 4 -8 15 1 11
9 19 8 39 -7 14 -10 26 -24 26 -31 0 -7 5 -10 11 -6 8 4 9 0 4 -15 -3 -12 -2
-21 4 -21 5 0 12 8 14 17 3 13 5 14 6 3 0 -8 -3 -22 -9 -30 -21 -33 -208 133
-302 268 -16 24 -45 76 -64 115 -19 40 -32 61 -28 47 35 -132 207 -341 359
-440 39 -24 72 -47 75 -50 4 -4 28 -17 93 -48 4 -2 7 2 7 7 0 6 -7 11 -15 11
-8 0 -15 5 -15 11 0 5 -4 7 -10 4 -5 -3 -10 -3 -10 2 0 4 -20 16 -45 26 -41
17 -60 37 -35 37 6 0 11 10 11 23 1 18 3 16 9 -8 4 -16 8 -22 9 -12 0 9 6 17
12 17 6 0 8 -9 4 -22 -6 -22 -6 -22 9 -4 9 11 16 14 16 7 0 -7 5 -9 10 -6 6 3
10 -1 10 -9 0 -10 -6 -13 -17 -10 -14 4 -14 3 1 -7 15 -9 21 -9 24 -1 5 16 23
15 21 0 -3 -26 1 -38 14 -36 7 2 11 -6 9 -19 -2 -13 2 -23 7 -23 6 0 11 7 11
16 0 16 23 44 36 44 3 0 1 -7 -7 -16 -10 -13 -10 -17 2 -25 20 -13 29 -11 35
6 4 8 10 15 14 15 5 0 3 -11 -3 -25 -7 -14 -16 -23 -22 -21 -5 2 -18 7 -27 11
-10 4 -18 3 -18 -2 0 -11 79 -37 178 -58 86 -18 102 -18 102 -5 0 6 -19 10
-42 10 -53 0 -88 9 -88 22 0 7 15 8 40 4 27 -4 40 -3 40 5 0 6 -7 9 -15 5 -8
-3 -15 -1 -15 4 0 5 11 9 24 8 17 -2 22 -7 18 -20 -2 -10 1 -18 7 -18 6 0 11
7 11 15 0 9 8 14 24 13 17 -2 22 -7 18 -20 -2 -10 1 -18 7 -18 6 0 11 6 11 14
0 8 4 18 10 21 5 3 7 0 4 -8 -3 -8 -1 -18 5 -22 6 -3 11 1 11 11 0 16 1 16 16
-2 14 -18 15 -18 9 6 l-6 25 17 -22 c9 -13 21 -23 26 -23 5 0 4 10 -2 23 -10
20 -10 20 3 5 15 -19 37 -24 37 -9 0 5 -6 12 -12 14 -10 4 -10 6 0 6 7 1 15
-6 18 -14 4 -9 19 -15 36 -15 26 0 29 2 18 15 -7 9 -11 17 -8 20 2 2 12 -4 21
-15 10 -12 12 -22 6 -26 -6 -4 -6 -11 2 -20 6 -8 9 -14 5 -14 -3 0 -9 0 -13 0
-5 0 -8 6 -8 13 0 7 -11 11 -25 11 -14 -1 -64 -2 -112 -3 -70 -1 -86 -4 -82
-15 3 -7 -2 -16 -10 -19 -9 -4 -16 -3 -16 2 0 4 -16 7 -35 6 -19 0 -35 2 -35
6 0 3 -13 5 -30 4 -16 -1 -30 2 -30 7 0 5 -9 7 -19 3 -11 -3 -22 -1 -26 5 -3
6 -11 8 -16 5 -5 -4 -9 -1 -9 5 0 7 -7 10 -15 6 -8 -3 -15 -1 -15 5 0 6 -7 9
-15 5 -8 -3 -15 -1 -15 4 0 5 -7 7 -15 4 -8 -4 -15 -1 -15 6 0 7 -7 10 -15 6
-8 -3 -15 -1 -15 4 0 4 -13 11 -30 15 -16 4 -30 11 -30 16 0 6 -4 7 -10 4 -5
-3 -10 -1 -10 4 0 6 -7 11 -15 11 -8 0 -15 5 -15 11 0 5 -4 8 -8 5 -5 -3 -14
4 -22 14 -8 10 -17 17 -21 14 -5 -2 -17 3 -29 13 -11 10 -23 17 -26 15 -3 -1
-23 16 -44 38 -22 23 -40 39 -40 35 0 -3 -18 13 -40 35 -22 22 -40 45 -40 51
0 6 -4 7 -10 4 -5 -3 -10 -2 -10 3 0 8 -20 35 -53 72 -7 8 -24 35 -36 60 -13
25 -27 47 -31 50 -13 9 -61 140 -71 198 -18 92 -7 235 24 321 15 41 38 94 52
118 14 24 23 49 19 56 -4 6 -4 9 0 5 4 -3 26 15 49 40 23 26 49 53 57 60 13
11 11 12 -10 6 -47 -12 -145 -66 -177 -96 -37 -35 -107 -174 -118 -233 -5 -22
-10 -47 -12 -55 -9 -38 -7 -180 2 -180 6 0 3 -5 -5 -10 -8 -5 -10 -10 -5 -10
11 0 13 -8 17 -68 2 -17 6 -32 10 -32 5 0 7 -3 6 -8 -5 -17 14 -81 27 -92 7
-6 11 -18 8 -26 -3 -8 0 -14 7 -14 6 0 9 -4 5 -9 -3 -5 1 -16 9 -24 8 -8 16
-23 18 -33 2 -10 8 -24 13 -30 6 -6 17 -22 25 -34 8 -12 23 -31 33 -42 9 -12
17 -25 17 -30 0 -5 27 -36 60 -68 33 -32 60 -64 60 -70 0 -6 5 -8 10 -5 6 3
10 -1 10 -11 0 -14 -2 -15 -17 -3 -27 21 -94 94 -172 188 -34 40 -141 263
-158 331 -12 44 -17 106 -18 193 0 71 -3 118 -7 105 -15 -55 -8 -234 13 -314
29 -112 108 -275 164 -341 6 -6 21 -26 35 -44 39 -52 168 -178 174 -172 3 4 6
1 6 -5 0 -7 7 -12 15 -12 8 0 15 -7 15 -16 0 -8 5 -12 10 -9 6 3 10 -1 10 -9
0 -10 6 -13 15 -10 9 4 15 0 15 -10 0 -10 6 -13 15 -10 8 4 15 1 15 -5 0 -6 7
-11 15 -11 8 0 15 -5 15 -11 0 -5 5 -7 10 -4 6 3 10 -1 10 -9 0 -10 6 -13 15
-10 8 4 15 1 15 -5 0 -6 7 -11 15 -11 8 0 15 -4 15 -10 0 -5 7 -7 15 -4 8 4
15 1 15 -6 0 -7 7 -10 15 -6 9 3 15 0 15 -10 0 -11 -6 -14 -22 -8 -62 18 -243
132 -317 199 -76 68 -165 166 -200 219 -14 23 -30 44 -36 48 -7 5 -7 8 0 8 6
0 5 4 -1 8 -18 11 -74 128 -101 211 -78 239 -43 473 99 662 32 43 67 84 77 91
38 28 34 41 -5 21 -21 -11 -56 -28 -77 -38 -85 -42 -180 -189 -212 -330 -20
-86 -20 -226 0 -330 16 -84 13 -112 -4 -48 -45 159 -36 343 24 492 18 47 27
77 19 66 -51 -67 -94 -209 -94 -312 0 -44 -4 -63 -12 -63 -10 0 -9 -3 1 -9 9
-6 11 -21 7 -50 -3 -26 -2 -40 4 -36 6 3 10 -4 11 -17 1 -21 3 -43 11 -93 2
-11 7 -23 11 -26 5 -3 2 -9 -7 -12 -9 -4 -16 -1 -17 6 -1 13 -4 30 -15 67 -4
14 -8 42 -8 63 -1 20 -4 37 -7 37 -4 0 -7 39 -8 88 -2 99 22 209 63 290 14 28
23 57 21 64 -3 8 24 46 64 89 38 40 67 76 65 78 -5 5 -83 -57 -122 -97 -53
-54 -107 -145 -133 -224 -21 -63 -24 -92 -24 -211 0 -95 -3 -127 -9 -105 -4
18 -6 87 -3 153 7 166 41 259 136 373 46 55 77 79 226 172 51 32 75 60 39 46
-9 -3 -28 -9 -42 -12 -23 -4 -21 -2 7 11 18 8 39 15 47 15 20 0 94 33 94 42 0
16 -154 -18 -273 -61 -84 -29 -181 -98 -262 -183 -79 -83 -118 -152 -145 -254
-10 -38 -19 -60 -19 -48 -2 53 54 191 107 264 46 63 187 197 231 219 24 13 40
18 36 12 -3 -6 -1 -11 4 -11 6 0 11 5 11 12 0 6 3 9 6 6 3 -3 29 3 57 13 66
25 156 46 232 54 59 7 116 23 85 24 -18 1 -171 -16 -220 -24 -19 -3 -55 -13
-80 -20 -25 -8 -72 -22 -105 -30 -33 -9 -89 -32 -125 -52 -221 -121 -341 -312
-357 -566 -7 -116 -16 -121 -15 -8 2 130 36 242 106 350 58 89 143 170 229
219 74 43 285 122 321 121 66 -2 295 26 316 38 22 12 8 13 -115 8 -77 -4 -151
-7 -165 -7 -58 -1 -213 -29 -258 -46 -26 -10 -81 -41 -122 -69 -135 -91 -227
-200 -286 -336 -16 -37 -30 -63 -32 -58 -6 17 56 141 103 206 50 71 149 164
213 202 24 14 41 27 38 30 -7 8 -80 -34 -132 -75 -116 -92 -181 -171 -233
-282 -16 -34 -32 -57 -35 -51 -8 12 10 54 52 125 22 37 104 134 170 200 1 2
-10 1 -25 -2 l-28 -5 27 22 c14 11 31 21 36 21 5 0 15 7 22 15 7 8 16 12 21 9
10 -6 192 86 185 93 -5 5 -55 -9 -108 -29 -15 -6 -25 -15 -21 -21 3 -6 1 -7
-5 -3 -7 4 -33 -5 -59 -21 -325 -187 -456 -483 -398 -898 4 -32 3 -35 -4 -18
-15 34 -28 174 -24 266 8 185 73 356 182 482 l26 30 -28 -25 c-41 -36 -111
-144 -141 -219 -36 -90 -57 -200 -59 -313 -1 -54 -6 -98 -11 -98 -5 0 -6 51
-3 126 14 274 110 463 312 615 50 37 52 42 13 26 -63 -26 -151 -92 -215 -161
-71 -75 -133 -191 -163 -306 -17 -65 -19 -68 -14 -25 8 67 55 187 100 255 79
120 198 216 339 274 82 34 211 89 275 118 24 11 75 31 113 43 69 24 84 31 76
39 -14 13 -324 -93 -466 -159 -301 -141 -469 -359 -500 -650 -3 -27 -8 -52
-11 -55 -5 -5 4 113 11 145 38 161 96 274 187 365 27 28 135 117 166 138 16
10 15 11 -6 1 -49 -23 -146 -98 -200 -155 -73 -77 -123 -161 -156 -262 -15
-45 -29 -80 -32 -77 -7 6 18 93 38 135 27 55 34 91 9 45 -28 -51 -66 -163 -74
-217 -12 -83 -14 -104 -14 -186 -1 -46 -5 -81 -10 -78 -12 8 -6 230 8 296 17
75 55 174 91 238 43 75 152 185 236 241 97 64 273 142 419 187 66 20 116 39
110 40 -5 2 -68 -14 -140 -35 -391 -116 -569 -213 -693 -376 -61 -82 -108
-188 -133 -300 -10 -44 -18 -66 -18 -50 -1 88 65 262 132 350 38 50 127 146
127 138 0 -4 12 5 28 19 37 36 159 100 262 138 97 36 394 129 419 131 40 4
-136 17 -244 18 -66 1 -181 6 -255 12 -202 14 -216 16 -355 43 -211 41 -391
150 -495 301 -38 56 -94 165 -87 171 3 3 19 -23 36 -59 17 -36 52 -92 79 -125
152 -189 350 -273 741 -312 125 -12 144 -12 116 0 -14 7 -8 8 20 4 43 -5 125
-9 365 -17 85 -3 139 -3 120 -1 -19 2 -116 14 -215 25 -400 45 -597 105 -764
233 -57 44 -181 186 -181 208 0 5 21 -17 46 -49 64 -79 105 -123 129 -135 11
-6 -4 14 -33 42 -113 114 -191 271 -227 460 -11 56 -17 250 -8 250 5 0 9 -26
9 -57 0 -72 18 -195 38 -258 1 -5 8 -30 15 -55 15 -52 69 -164 106 -218 66
-97 201 -209 310 -257 46 -21 167 -61 207 -69 7 -2 20 -6 28 -9 70 -27 194
-48 450 -77 183 -21 281 -25 245 -11 -11 5 -45 12 -75 15 -30 4 -101 16 -158
27 -57 10 -118 19 -136 19 -17 0 -36 4 -42 9 -5 4 -38 16 -74 25 -102 27 -149
44 -238 87 -184 85 -309 205 -396 376 -41 81 -30 76 16 -7 71 -130 140 -205
263 -288 128 -88 328 -161 520 -191 33 -5 92 -16 130 -24 176 -37 288 -47 300
-27 3 6 17 10 31 10 13 0 24 5 24 10 0 6 21 11 48 11 26 1 61 4 77 8 36 9 31
11 -95 40 -120 28 -173 42 -190 51 -48 23 -270 47 -270 28 0 -4 15 -8 33 -8
26 -1 29 -2 15 -11 -19 -11 -81 2 -128 26 -14 7 -65 24 -115 39 -212 63 -377
194 -466 368 -45 89 -80 178 -70 178 3 0 19 -34 34 -75 34 -92 117 -211 200
-288 56 -52 212 -146 223 -134 3 2 -12 12 -33 22 -102 49 -215 144 -271 227
-55 83 -91 155 -72 143 6 -3 10 -11 10 -16 0 -24 98 -159 156 -215 63 -61 133
-104 169 -104 10 0 15 -3 12 -7 -13 -12 145 -75 236 -94 92 -19 236 -27 157
-9 -19 5 -73 16 -120 25 -107 21 -193 55 -295 116 -122 73 -181 138 -249 273
-62 123 -85 219 -90 376 -3 75 2 100 18 100 7 0 11 -27 10 -82 -5 -252 115
-495 310 -632 59 -41 86 -56 169 -90 64 -26 41 -10 -45 33 -191 92 -323 256
-380 466 -20 77 -37 285 -22 285 5 0 10 -40 11 -89 3 -116 32 -235 85 -341 74
-148 233 -287 397 -345 54 -19 51 -7 -7 32 -167 115 -295 303 -335 493 -24
114 -27 140 -14 140 7 0 13 -15 14 -32 5 -95 68 -285 92 -280 7 1 10 -2 7 -7
-4 -5 -2 -11 2 -13 5 -1 28 -31 51 -65 47 -69 139 -156 154 -146 6 3 7 1 3 -6
-18 -28 142 -136 233 -157 30 -7 57 -12 58 -10 4 4 -108 70 -147 88 -17 7 -30
17 -30 23 -1 5 -27 33 -58 60 -79 69 -136 144 -187 250 -53 108 -75 204 -75
327 0 103 17 218 32 218 6 0 7 -9 3 -22 -16 -52 -17 -243 -1 -317 36 -171 159
-334 312 -414 40 -20 76 -37 80 -37 5 0 -46 53 -112 118 -110 105 -126 125
-162 202 -42 89 -60 154 -63 230 -4 78 1 160 9 160 4 0 6 -40 4 -88 -6 -155
48 -312 143 -417 39 -42 43 -45 25 -15 -12 19 -36 56 -55 83 -39 55 -73 139
-80 200 -4 37 -3 36 9 -13 16 -59 52 -150 60 -150 6 0 -8 40 -25 72 -6 11 -11
40 -11 64 0 31 -3 42 -11 37 -7 -4 -5 1 3 12 14 17 15 15 22 -28 11 -76 66
-219 68 -177 1 8 12 -6 25 -31 27 -52 92 -122 109 -116 5 2 33 -13 60 -34 27
-21 58 -40 69 -43 17 -4 17 -2 -5 22 -14 15 -45 54 -69 87 -24 33 -62 83 -84
110 -23 28 -46 63 -53 78 -7 17 -17 25 -24 21 -7 -5 -9 0 -6 14 4 12 2 20 -2
17 -11 -7 -23 125 -18 195 4 52 4 51 6 -16 2 -73 23 -154 62 -236 22 -48 63
-95 45 -53 -48 113 -59 292 -25 406 11 38 25 71 30 74 6 4 16 21 24 38 29 69
165 182 241 201 6 2 17 6 25 9 41 16 80 20 80 7z m-471 -3 c-2 -1 -13 -9 -24
-17 -19 -14 -19 -14 -6 3 7 9 18 17 24 17 6 0 8 -1 6 -3z m-452 -13 c-3 -3
-12 -4 -19 -1 -8 3 -5 6 6 6 11 1 17 -2 13 -5z m1221 -19 c33 -13 40 -20 31
-29 -8 -8 -13 -8 -16 2 -3 6 -9 10 -14 6 -5 -3 -9 1 -9 8 0 9 -3 9 -10 -2 -6
-9 -10 -10 -10 -3 0 6 -9 15 -20 18 -11 3 -20 11 -20 17 0 5 6 8 13 5 6 -3 31
-13 55 -22z m-1738 -8 c0 -7 -7 -22 -15 -33 -13 -17 -14 -16 -4 14 11 33 19
41 19 19z m474 -72 c-15 -37 -27 -74 -27 -82 0 -7 -3 -13 -7 -13 -4 0 -6 -11
-5 -25 2 -14 0 -25 -5 -25 -4 0 -7 -10 -7 -22 -1 -69 -3 -78 -20 -77 -11 0
-13 3 -6 6 9 3 10 10 3 22 -5 10 -7 21 -4 23 4 5 13 37 18 68 5 33 30 100 37
100 4 0 6 8 5 18 -4 20 14 62 25 62 5 0 6 8 2 18 -4 13 -3 14 6 6 9 -9 6 -27
-15 -79z m361 66 c-3 -6 -11 -11 -16 -11 -5 0 -4 6 3 14 14 16 24 13 13 -3z
m215 16 c0 -2 -12 -14 -27 -28 l-28 -24 24 28 c23 25 31 32 31 24z m-130 -27
c-6 -11 -15 -20 -20 -20 -6 0 -2 9 7 20 10 11 19 20 21 20 1 0 -2 -9 -8 -20z
m-115 -42 c-9 -18 -22 -44 -29 -58 -7 -14 -16 -37 -20 -52 -6 -24 -26 -40 -26
-21 0 16 74 163 82 163 5 0 1 -15 -7 -32z m1010 20 c14 -6 25 -15 25 -20 0 -4
7 -8 15 -8 8 0 15 -5 15 -11 0 -5 3 -8 8 -6 4 3 13 -1 20 -9 23 -25 -2 -15
-62 26 -60 41 -66 49 -21 28z m-942 -53 c-13 -25 -27 -45 -29 -45 -2 0 6 20
18 45 12 25 25 45 29 45 4 0 -4 -20 -18 -45z m-373 -31 c-11 -32 -25 -94 -32
-136 -7 -43 -15 -78 -19 -78 -10 0 10 111 37 199 14 45 27 81 30 79 2 -3 -5
-31 -16 -64z m1145 56 c4 -6 11 -8 16 -5 5 4 9 1 9 -4 0 -12 -6 -13 -37 -5
-13 4 -23 10 -23 15 0 12 27 11 35 -1z m-672 -20 c-3 -12 -8 -19 -11 -16 -5 6
5 36 12 36 2 0 2 -9 -1 -20z m757 -10 c14 -7 25 -12 25 -10 0 6 80 -39 105
-59 14 -11 22 -23 18 -26 -3 -4 -16 3 -27 14 -12 12 -21 19 -21 16 0 -3 -10 3
-22 15 -12 11 -25 21 -30 21 -18 3 -24 5 -45 17 -21 12 -27 9 -24 -10 0 -4 -7
-4 -16 -1 -11 4 -13 8 -5 11 10 3 10 7 2 17 -14 17 5 15 40 -5z m-1760 0 c0
-5 -5 -10 -11 -10 -5 0 -7 5 -4 10 3 6 8 10 11 10 2 0 4 -4 4 -10z m1613 3
c-13 -2 -35 -2 -50 0 -16 2 -5 4 22 4 28 0 40 -2 28 -4z m64 -9 c-3 -3 -12 -4
-19 -1 -8 3 -5 6 6 6 11 1 17 -2 13 -5z m-1682 -24 c3 -5 1 -10 -4 -10 -6 0
-11 5 -11 10 0 6 2 10 4 10 3 0 8 -4 11 -10z m2020 -58 c-3 -3 -13 5 -24 16
-10 12 -24 22 -30 22 -7 0 -9 5 -5 11 4 7 17 0 35 -17 16 -15 27 -30 24 -32z
m-2025 28 c0 -5 -4 -10 -10 -10 -5 0 -10 5 -10 10 0 6 5 10 10 10 6 0 10 -4
10 -10z m875 -20 c-8 -16 -15 -39 -15 -52 0 -13 -5 -30 -11 -38 -7 -11 -9 -6
-4 20 10 51 28 100 37 100 5 0 2 -13 -7 -30z m-198 14 c-3 -3 -12 -4 -19 -1
-8 3 -5 6 6 6 11 1 17 -2 13 -5z m285 -26 c-8 -8 -9 -4 -5 13 4 13 8 18 11 10
2 -7 -1 -18 -6 -23z m806 21 c18 -6 29 -15 26 -21 -4 -6 -9 -6 -13 -1 -3 5
-17 14 -31 20 -32 15 -22 16 18 2z m-1778 -13 c0 -3 -4 -8 -10 -11 -5 -3 -10
-1 -10 4 0 6 5 11 10 11 6 0 10 -2 10 -4z m1045 -23 c-2 -10 -4 -24 -4 -30 -1
-7 -6 -13 -11 -13 -7 0 -7 6 0 20 6 11 8 20 5 20 -4 0 -3 5 0 10 9 15 14 12
10 -7z m1039 -28 c32 -32 52 -65 40 -65 -3 0 -12 6 -20 14 -8 8 -23 12 -36 9
-22 -5 -22 -5 -5 9 18 13 17 15 -3 41 -30 38 -16 34 24 -8z m-2087 19 c-3 -3
-12 -4 -19 -1 -8 3 -5 6 6 6 11 1 17 -2 13 -5z m2383 -14 c0 -5 -5 -10 -11
-10 -5 0 -7 5 -4 10 3 6 8 10 11 10 2 0 4 -4 4 -10z m-479 -17 c13 -16 12 -17
-3 -4 -10 7 -18 15 -18 17 0 8 8 3 21 -13z m-954 -15 c-3 -8 -6 -5 -6 6 -1 11
2 17 5 13 3 -3 4 -12 1 -19z m1307 11 c-6 -11 -44 -12 -44 -1 0 4 11 8 25 8
14 1 22 -2 19 -7z m-61 -6 c-7 -2 -19 -2 -25 0 -7 3 -2 5 12 5 14 0 19 -2 13
-5z m-2213 -13 c0 -5 -5 -10 -11 -10 -5 0 -7 5 -4 10 3 6 8 10 11 10 2 0 4 -4
4 -10z m907 -12 c-3 -8 -6 -5 -6 6 -1 11 2 17 5 13 3 -3 4 -12 1 -19z m137
-16 c-4 -18 -10 -32 -14 -32 -7 0 -5 24 6 59 8 26 14 4 8 -27z m-87 -4 c-3 -8
-6 -5 -6 6 -1 11 2 17 5 13 3 -3 4 -12 1 -19z m-957 2 c0 -5 -4 -10 -10 -10
-5 0 -10 5 -10 10 0 6 5 10 10 10 6 0 10 -4 10 -10z m677 4 c-3 -3 -12 -4 -19
-1 -8 3 -5 6 6 6 11 1 17 -2 13 -5z m1773 -13 c0 -6 -4 -13 -10 -16 -5 -3 -10
1 -10 9 0 9 5 16 10 16 6 0 10 -4 10 -9z m30 -6 c0 -8 -4 -15 -10 -15 -5 0 -7
7 -4 15 4 8 8 15 10 15 2 0 4 -7 4 -15z m32 -7 c-7 -7 -12 -8 -12 -2 0 6 3 14
7 17 3 4 9 5 12 2 2 -3 -1 -11 -7 -17z m-1846 -32 c0 -28 -4 -42 -11 -38 -5 3
-4 -1 3 -10 12 -15 2 -34 -12 -21 -11 11 -6 43 7 43 8 0 7 4 -3 10 -9 6 -10
10 -3 10 7 0 10 10 7 25 -2 14 -1 25 4 25 4 0 8 -20 8 -44z m1652 18 c2 -1 -8
-1 -22 -1 -17 0 -23 4 -19 14 4 11 8 11 22 1 9 -7 17 -13 19 -14z m24 4 c-7
-7 -12 -8 -12 -2 0 6 3 14 7 17 3 4 9 5 12 2 2 -3 -1 -11 -7 -17z m43 12 c-3
-5 -11 -10 -16 -10 -6 0 -7 5 -4 10 3 6 11 10 16 10 6 0 7 -4 4 -10z m430 0
c3 -5 1 -10 -4 -10 -6 0 -11 5 -11 10 0 6 2 10 4 10 3 0 8 -4 11 -10z m49 -5
c3 -8 1 -15 -4 -15 -6 0 -10 7 -10 15 0 8 2 15 4 15 2 0 6 -7 10 -15z m-1917
-72 c-2 -16 -4 -3 -4 27 0 30 2 43 4 28 2 -16 2 -40 0 -55z m1228 67 c4 -6 15
-6 30 0 19 7 25 6 25 -4 0 -25 -94 -35 -103 -12 -4 11 -1 13 10 9 11 -4 14 -2
9 5 -4 7 -1 12 8 12 8 0 17 -4 21 -10z m81 -17 c-10 -10 -19 5 -10 18 6 11 8
11 12 0 2 -7 1 -15 -2 -18z m651 5 c-3 -8 -6 -5 -6 6 -1 11 2 17 5 13 3 -3 4
-12 1 -19z m100 -10 c-3 -8 -6 -5 -6 6 -1 11 2 17 5 13 3 -3 4 -12 1 -19z m50
-10 c-3 -8 -6 -5 -6 6 -1 11 2 17 5 13 3 -3 4 -12 1 -19z m-3067 -8 c0 -11 -4
-20 -9 -20 -6 0 -9 9 -8 20 1 11 5 20 9 20 4 0 8 -9 8 -20z m3124 5 c-4 -8
-11 -15 -16 -15 -6 0 -5 6 2 15 7 8 14 15 16 15 2 0 1 -7 -2 -15z m-2217 -27
c-3 -8 -6 -5 -6 6 -1 11 2 17 5 13 3 -3 4 -12 1 -19z m1316 -15 c-3 -7 0 -13
6 -13 6 0 8 -7 5 -15 -5 -11 -9 -11 -19 -2 -7 6 -10 18 -7 26 4 10 1 13 -10 9
-8 -4 -21 -2 -29 4 -11 8 -10 9 4 4 11 -3 20 0 23 9 5 11 9 11 19 2 7 -6 10
-18 8 -24z m112 27 c3 -5 1 -10 -4 -10 -6 0 -11 5 -11 10 0 6 2 10 4 10 3 0 8
-4 11 -10z m900 -10 c-3 -5 -12 -10 -18 -10 -7 0 -6 4 3 10 19 12 23 12 15 0z
m-1090 -11 c4 -5 -5 -9 -19 -9 -14 0 -26 4 -26 8 0 11 39 12 45 1z m-2145 -9
c0 -5 -4 -10 -10 -10 -5 0 -10 5 -10 10 0 6 5 10 10 10 6 0 10 -4 10 -10z
m907 -32 c-3 -7 -5 -2 -5 12 0 14 2 19 5 13 2 -7 2 -19 0 -25z m2494 -11 c-10
-9 -11 -8 -5 6 3 10 9 15 12 12 3 -3 0 -11 -7 -18z m-2444 -19 c-3 -7 -5 -2
-5 12 0 14 2 19 5 13 2 -7 2 -19 0 -25z m1449 -14 c-3 -8 -1 -14 4 -14 5 0 10
7 12 15 2 13 5 13 14 -2 10 -17 7 -19 -30 -18 -29 0 -41 4 -42 15 0 9 1 10 3
3 7 -21 23 -15 23 8 0 12 4 17 11 14 6 -4 8 -13 5 -21z m-63 -12 c-4 -10 -8
-12 -11 -4 -2 7 -11 12 -20 12 -14 0 -14 2 -3 9 20 13 41 2 34 -17z m121 12
c3 -8 2 -12 -4 -9 -6 3 -10 10 -10 16 0 14 7 11 14 -7z m70 0 c5 -14 4 -15 -9
-4 -17 14 -19 20 -6 20 5 0 12 -7 15 -16z m146 12 c0 -3 -4 -8 -10 -11 -5 -3
-10 -1 -10 4 0 6 5 11 10 11 6 0 10 -2 10 -4z m-414 -20 c9 -9 10 -17 4 -21
-14 -8 -30 3 -30 21 0 18 8 18 26 0z m472 0 c-7 -8 -15 -12 -17 -11 -5 6 10
25 20 25 5 0 4 -6 -3 -14z m-457 -48 c1 -7 1 -19 0 -25 -1 -7 4 -13 11 -13 9
0 9 -3 0 -12 -19 -19 -40 6 -22 27 8 10 9 15 1 15 -6 0 -11 5 -11 10 0 15 20
12 21 -2z m-66 -28 c9 -17 11 -30 5 -30 -5 0 -10 8 -11 18 0 15 -2 14 -10 -3
-8 -17 -9 -16 -4 7 3 16 0 28 -8 31 -9 4 -9 6 0 6 7 1 19 -12 28 -29z m189 -6
c3 -8 2 -12 -4 -9 -6 3 -10 10 -10 16 0 14 7 11 14 -7z m146 2 c0 -3 -4 -8
-10 -11 -5 -3 -10 -1 -10 4 0 6 5 11 10 11 6 0 10 -2 10 -4z m-2120 -41 c0 -8
-2 -15 -4 -15 -2 0 -6 7 -10 15 -3 8 -1 15 4 15 6 0 10 -7 10 -15z m-28 -20
c3 -14 1 -25 -3 -25 -5 0 -9 3 -10 8 0 4 -2 15 -4 25 -2 9 0 17 5 17 4 0 10
-11 12 -25z m605 3 c-3 -8 -6 -5 -6 6 -1 11 2 17 5 13 3 -3 4 -12 1 -19z
m1304 13 c-12 -8 -12 -12 -2 -24 7 -9 8 -17 2 -19 -5 -1 -1 -20 9 -40 18 -37
18 -38 -1 -38 -15 0 -18 5 -15 26 3 16 -2 32 -15 45 -17 17 -17 19 -2 19 13 0
14 3 5 12 -18 18 -14 28 11 28 17 0 19 -2 8 -9z m-71 -16 c0 -8 5 -15 11 -15
5 0 7 -5 4 -11 -4 -6 -14 -8 -22 -5 -9 4 -11 2 -7 -6 4 -7 3 -8 -4 -4 -7 4
-12 14 -12 22 0 8 4 12 10 9 6 -3 7 1 4 9 -3 9 -1 16 5 16 6 0 11 -7 11 -15z
m-1161 -40 c0 -5 -4 -3 -9 5 -5 8 -9 22 -9 30 0 16 17 -16 18 -35z m1266 25
c3 -5 1 -10 -4 -10 -6 0 -11 5 -11 10 0 6 2 10 4 10 3 0 8 -4 11 -10z m30 0
c3 -5 1 -10 -4 -10 -6 0 -11 5 -11 10 0 6 2 10 4 10 3 0 8 -4 11 -10z m95 6
c0 -3 -4 -8 -10 -11 -5 -3 -10 -1 -10 4 0 6 5 11 10 11 6 0 10 -2 10 -4z
m-1730 -26 c0 -5 -2 -10 -4 -10 -3 0 -8 5 -11 10 -3 6 -1 10 4 10 6 0 11 -4
11 -10z m7 -42 c-3 -8 -6 -5 -6 6 -1 11 2 17 5 13 3 -3 4 -12 1 -19z m1513
-25 c0 -7 -4 -13 -9 -13 -10 0 -21 36 -13 45 7 7 22 -15 22 -32z m-2032 2 c-3
-3 -9 2 -12 12 -6 14 -5 15 5 6 7 -7 10 -15 7 -18z m2205 0 c-3 -9 -8 -14 -10
-11 -3 3 -2 9 2 15 9 16 15 13 8 -4z m-1319 -11 c3 -8 2 -12 -4 -9 -6 3 -10
10 -10 16 0 14 7 11 14 -7z m2826 6 c0 -5 -5 -10 -11 -10 -5 0 -7 5 -4 10 3 6
8 10 11 10 2 0 4 -4 4 -10z m-3940 -40 c0 -11 -2 -20 -4 -20 -2 0 -6 9 -9 20
-3 11 -1 20 4 20 5 0 9 -9 9 -20z m249 -20 c0 -10 -3 -8 -9 5 -12 27 -12 43 0
25 5 -8 9 -22 9 -30z m2082 18 c0 -7 2 -23 5 -35 3 -17 -1 -23 -14 -22 -9 0
-12 3 -6 5 14 6 6 45 -10 56 -7 5 -4 8 7 8 9 0 17 -6 18 -12z m249 2 c0 -5 -2
-10 -4 -10 -3 0 -8 5 -11 10 -3 6 -1 10 4 10 6 0 11 -4 11 -10z m1420 -10 c0
-5 -5 -10 -11 -10 -5 0 -7 5 -4 10 3 6 8 10 11 10 2 0 4 -4 4 -10z m-2845 -26
c9 -15 12 -23 6 -20 -11 7 -35 46 -28 46 3 0 12 -12 22 -26z m-1137 -35 c-3
-8 -7 -3 -11 10 -4 17 -3 21 5 13 5 -5 8 -16 6 -23z m2402 27 c0 -2 -7 -7 -16
-10 -8 -3 -12 -2 -9 4 6 10 25 14 25 6z m-2676 -51 c3 -8 1 -15 -4 -15 -6 0
-10 7 -10 15 0 8 2 15 4 15 2 0 6 -7 10 -15z m2706 -15 c0 -5 -5 -10 -11 -10
-5 0 -7 5 -4 10 3 6 8 10 11 10 2 0 4 -4 4 -10z m35 0 c3 -5 1 -10 -4 -10 -6
0 -11 5 -11 10 0 6 2 10 4 10 3 0 8 -4 11 -10z m-2426 -47 c12 -24 19 -43 16
-43 -5 0 -45 75 -45 86 0 11 6 2 29 -43z m-301 6 c-3 -8 -7 -3 -11 10 -4 17
-3 21 5 13 5 -5 8 -16 6 -23z m2825 -34 c-8 -22 -22 -18 -16 5 3 11 9 17 14
15 4 -3 6 -12 2 -20z m1587 21 c0 -2 -7 -7 -16 -10 -8 -3 -12 -2 -9 4 6 10 25
14 25 6z m-1680 -27 c0 -5 -4 -9 -10 -9 -5 0 -10 7 -10 16 0 8 5 12 10 9 6 -3
10 -10 10 -16z m34 6 c-4 -8 -10 -15 -14 -15 -4 0 -10 7 -14 15 -4 10 1 15 14
15 13 0 18 -5 14 -15z m22 -12 c-10 -10 -19 5 -10 18 6 11 8 11 12 0 2 -7 1
-15 -2 -18z m64 2 c0 -8 -4 -15 -10 -15 -5 0 -10 7 -10 15 0 8 5 15 10 15 6 0
10 -7 10 -15z m40 0 c0 -8 -4 -15 -10 -15 -5 0 -10 7 -10 15 0 8 5 15 10 15 6
0 10 -7 10 -15z m30 -5 c0 -11 -2 -20 -4 -20 -2 0 -6 9 -9 20 -3 11 -1 20 4
20 5 0 9 -9 9 -20z m28 -5 c-3 -3 -9 2 -12 12 -6 14 -5 15 5 6 7 -7 10 -15 7
-18z m35 5 c3 -11 2 -20 -3 -20 -4 0 -10 9 -13 20 -3 11 -2 20 3 20 4 0 10 -9
13 -20z m41 -5 c-4 -8 -11 -15 -16 -15 -6 0 -5 6 2 15 7 8 14 15 16 15 2 0 1
-7 -2 -15z m33 -5 c-1 -11 -7 -20 -14 -20 -11 0 -11 4 -1 20 7 11 14 20 15 20
1 0 1 -9 0 -20z m-2403 -6 c3 -8 2 -12 -4 -9 -6 3 -10 10 -10 16 0 14 7 11 14
-7z m2446 -16 c0 -5 -4 -8 -10 -8 -5 0 -10 10 -10 23 0 18 2 19 10 7 5 -8 10
-18 10 -22z m-280 7 c0 -8 -4 -15 -10 -15 -5 0 -7 7 -4 15 4 8 8 15 10 15 2 0
4 -7 4 -15z m307 -7 c-3 -8 -6 -5 -6 6 -1 11 2 17 5 13 3 -3 4 -12 1 -19z
m-502 2 c3 -5 1 -10 -4 -10 -6 0 -11 5 -11 10 0 6 2 10 4 10 3 0 8 -4 11 -10z
m105 0 c0 -5 -4 -10 -10 -10 -5 0 -10 5 -10 10 0 6 5 10 10 10 6 0 10 -4 10
-10z m30 0 c0 -5 -5 -10 -11 -10 -5 0 -7 5 -4 10 3 6 8 10 11 10 2 0 4 -4 4
-10z m410 -11 c0 -5 -4 -9 -8 -9 -5 0 -9 7 -9 15 0 8 4 12 9 9 4 -3 8 -9 8
-15z m-470 7 c0 -9 -30 -14 -35 -6 -4 6 3 10 14 10 12 0 21 -2 21 -4z m150 0
c0 -3 -4 -8 -10 -11 -5 -3 -10 -1 -10 4 0 6 5 11 10 11 6 0 10 -2 10 -4z m30
-6 c0 -5 -4 -10 -10 -10 -5 0 -10 5 -10 10 0 6 5 10 10 10 6 0 10 -4 10 -10z
m324 -5 c3 -8 1 -15 -4 -15 -6 0 -10 7 -10 15 0 8 2 15 4 15 2 0 6 -7 10 -15z
m-1914 -20 c19 -14 30 -25 26 -25 -10 0 -76 40 -76 46 0 10 19 2 50 -21z
m1705 15 c8 -13 -5 -13 -25 0 -13 8 -13 10 2 10 9 0 20 -4 23 -10z m-2294 -17
c13 -16 12 -17 -3 -4 -10 7 -18 15 -18 17 0 8 8 3 21 -13z m2583 2 c-4 -8 -11
-15 -16 -15 -6 0 -5 6 2 15 7 8 14 15 16 15 2 0 1 -7 -2 -15z m-601 -10 c-3
-9 -8 -14 -10 -11 -3 3 -2 9 2 15 9 16 15 13 8 -4z m630 0 c-3 -9 -8 -14 -10
-11 -3 3 -2 9 2 15 9 16 15 13 8 -4z m-665 -12 c-10 -2 -26 -2 -35 0 -10 3 -2
5 17 5 19 0 27 -2 18 -5z m706 -8 c3 -8 1 -15 -4 -15 -6 0 -10 7 -10 15 0 8 2
15 4 15 2 0 6 -7 10 -15z m-2609 -15 c10 -11 16 -20 13 -20 -3 0 -13 9 -23 20
-10 11 -16 20 -13 20 3 0 13 -9 23 -20z m2712 -42 c-3 -7 -5 -2 -5 12 0 14 2
19 5 13 2 -7 2 -19 0 -25z m833 18 c0 -3 -4 -8 -10 -11 -5 -3 -10 -1 -10 4 0
6 5 11 10 11 6 0 10 -2 10 -4z m-799 -29 c-10 -9 -11 -8 -5 6 3 10 9 15 12 12
3 -3 0 -11 -7 -18z m-2434 -64 c-7 -6 -94 36 -107 52 -7 8 15 0 49 -17 34 -17
59 -33 58 -35z m2118 37 c-3 -5 3 -6 12 -4 22 5 51 -12 39 -23 -5 -4 -10 -3
-13 3 -2 6 -17 8 -33 6 -18 -2 -30 0 -30 7 0 6 -7 8 -15 5 -8 -4 -15 -1 -15 5
0 6 -7 8 -15 5 -14 -6 -21 7 -10 18 9 8 85 -13 80 -22z m-150 0 c-3 -5 -11
-10 -16 -10 -6 0 -7 5 -4 10 3 6 11 10 16 10 6 0 7 -4 4 -10z m29 -16 c3 -8 2
-12 -4 -9 -6 3 -10 10 -10 16 0 14 7 11 14 -7z m-2154 -4 c8 -5 11 -10 5 -10
-5 0 -17 5 -25 10 -8 5 -10 10 -5 10 6 0 17 -5 25 -10z m2220 6 c0 -3 -4 -8
-10 -11 -5 -3 -10 -1 -10 4 0 6 5 11 10 11 6 0 10 -2 10 -4z m134 -30 c-3 -14
-10 -26 -15 -26 -11 0 -11 3 1 36 13 33 23 26 14 -10z m331 24 c3 -5 1 -10 -4
-10 -6 0 -11 5 -11 10 0 6 2 10 4 10 3 0 8 -4 11 -10z m-3291 -16 c5 -14 4
-15 -9 -4 -17 14 -19 20 -6 20 5 0 12 -7 15 -16z m2856 6 c0 -5 -4 -10 -10
-10 -5 0 -10 5 -10 10 0 6 5 10 10 10 6 0 10 -4 10 -10z m35 -10 c3 -5 1 -10
-4 -10 -6 0 -11 5 -11 10 0 6 2 10 4 10 3 0 8 -4 11 -10z m110 0 c-3 -5 -10
-10 -16 -10 -5 0 -9 5 -9 10 0 6 7 10 16 10 8 0 12 -4 9 -10z m110 -41 c44
-23 90 -46 102 -53 13 -6 23 -14 23 -18 0 -5 7 -8 15 -8 8 0 15 -4 15 -10 0
-5 6 -10 13 -10 6 0 26 -14 44 -30 18 -17 34 -30 37 -30 14 0 109 -101 102
-107 -4 -5 -17 3 -29 17 -39 46 -93 81 -113 74 -16 -5 -16 -4 -4 5 17 12 12
16 -74 73 -33 22 -51 28 -54 20 -2 -7 -11 -12 -20 -11 -11 0 -12 2 -4 6 17 7
15 33 -3 33 -8 0 -15 -4 -15 -10 0 -5 -5 -10 -11 -10 -8 0 -8 4 1 15 10 12 6
17 -27 32 -21 10 -41 23 -45 28 -4 6 -8 6 -8 1 0 -5 -7 -3 -15 4 -12 10 -15
10 -15 -3 0 -9 -4 -18 -9 -22 -7 -4 -8 29 -2 53 2 7 23 -2 96 -39z m249 26 c3
-8 1 -15 -4 -15 -6 0 -10 7 -10 15 0 8 2 15 4 15 2 0 6 -7 10 -15z m-2617 -21
c-3 -3 -12 -4 -19 -1 -8 3 -5 6 6 6 11 1 17 -2 13 -5z m-637 -41 c0 -7 -39 17
-46 28 -3 6 5 3 20 -6 14 -10 26 -19 26 -22z m2950 17 c0 -5 -4 -10 -10 -10
-5 0 -10 5 -10 10 0 6 5 10 10 10 6 0 10 -4 10 -10z m367 -12 c-3 -8 -6 -5 -6
6 -1 11 2 17 5 13 3 -3 4 -12 1 -19z m-2570 6 c-3 -3 -12 -4 -19 -1 -8 3 -5 6
6 6 11 1 17 -2 13 -5z m115 -15 c13 0 17 -3 10 -6 -20 -8 -83 7 -77 18 4 6 13
5 25 -1 10 -5 29 -10 42 -11z m2118 11 c0 -5 -5 -10 -11 -10 -5 0 -7 5 -4 10
3 6 8 10 11 10 2 0 4 -4 4 -10z m-2000 -24 c8 -2 -9 -4 -37 -5 -29 0 -53 3
-53 7 0 7 52 6 90 -2z m131 -7 c3 -5 32 -14 65 -20 32 -6 68 -15 79 -19 11 -5
33 -11 49 -15 15 -3 27 -8 25 -9 -7 -6 -130 20 -203 43 -37 11 -76 21 -86 21
-11 0 -22 5 -25 11 -9 13 87 1 96 -12z m-1051 -4 c14 -8 21 -14 15 -14 -5 0
-21 6 -35 14 -14 8 -20 14 -15 14 6 0 21 -6 35 -14z m123 -50 c31 -10 55 -20
53 -22 -6 -6 -136 36 -136 44 0 3 6 3 13 1 6 -3 38 -13 70 -23z m932 -3 c-3
-3 -11 0 -18 7 -9 10 -8 11 6 5 10 -3 15 -9 12 -12z m-825 -28 c0 -2 -9 -4
-20 -4 -11 0 -20 4 -20 9 0 5 9 7 20 4 11 -3 20 -7 20 -9z m1093 9 c-7 -2 -19
-2 -25 0 -7 3 -2 5 12 5 14 0 19 -2 13 -5z m1501 -27 c-3 -14 -10 -26 -14 -26
-5 0 -10 -6 -13 -12 -2 -7 -2 -4 0 7 3 11 5 27 5 35 1 14 19 32 26 26 1 -2 0
-15 -4 -30z m-680 9 c-4 -8 -13 -15 -20 -15 -12 0 -12 3 -2 15 17 19 29 19 22
0z m986 -1 c0 -2 -7 -4 -15 -4 -8 0 -15 4 -15 10 0 5 7 7 15 4 8 -4 15 -8 15
-10z m-2863 0 c-3 -3 -12 -4 -19 -1 -8 3 -5 6 6 6 11 1 17 -2 13 -5z m1983 -3
c0 -6 -4 -12 -8 -15 -5 -3 -9 1 -9 9 0 8 4 15 9 15 4 0 8 -4 8 -9z m83 2 c-7
-2 -19 -2 -25 0 -7 3 -2 5 12 5 14 0 19 -2 13 -5z m518 -7 c-9 -11 -9 -16 0
-22 7 -4 9 -3 6 3 -4 6 0 14 8 17 11 4 14 0 12 -17 -2 -12 -2 -17 0 -10 6 18
33 24 33 8 0 -8 -5 -15 -11 -15 -5 0 -8 -4 -4 -9 6 -10 -25 -31 -44 -31 -6 0
-11 8 -10 18 0 10 3 12 6 5 2 -7 10 -13 16 -13 6 0 4 7 -5 16 -16 16 -43 11
-33 -7 4 -5 1 -9 -4 -9 -14 0 -14 1 4 44 8 20 20 36 26 36 8 0 8 -4 0 -14z
m-2538 -3 c-7 -2 -19 -2 -25 0 -7 3 -2 5 12 5 14 0 19 -2 13 -5z m1707 -4
c-20 -8 -22 -12 -10 -19 10 -7 11 -10 3 -10 -23 0 -28 -2 -43 -13 -8 -6 -6 0
5 13 26 32 37 40 55 39 8 0 4 -5 -10 -10z m-1647 -6 c-7 -2 -19 -2 -25 0 -7 3
-2 5 12 5 14 0 19 -2 13 -5z m57 -9 c0 -2 -9 -4 -20 -4 -11 0 -20 4 -20 9 0 5
9 7 20 4 11 -3 20 -7 20 -9z m37 0 c-3 -3 -12 -4 -19 -1 -8 3 -5 6 6 6 11 1
17 -2 13 -5z m1666 -1 c-7 -2 -19 -2 -25 0 -7 3 -2 5 12 5 14 0 19 -2 13 -5z
m807 -14 c0 -6 7 -9 14 -6 10 4 13 1 9 -9 -3 -7 -8 -14 -12 -14 -13 1 -40 27
-34 33 10 11 23 8 23 -4z m-9 -29 c13 -8 25 -7 39 0 16 9 20 8 20 -6 0 -11 -5
-14 -17 -10 -11 4 -7 -4 10 -19 30 -27 49 -32 45 -14 -2 6 3 14 11 17 9 3 6
-9 -9 -37 -13 -22 -28 -41 -33 -41 -5 0 -4 7 3 15 7 9 11 17 9 19 -36 27 -54
34 -71 25 -12 -6 -18 -6 -18 1 0 5 5 10 11 10 5 0 7 5 4 10 -5 8 -11 7 -21 -1
-8 -6 -17 -9 -21 -5 -3 3 -1 6 5 6 7 0 12 5 12 11 0 6 -7 8 -16 5 -14 -5 -15
-4 -4 9 15 18 16 18 41 5z m286 4 c-3 -3 -12 -4 -19 -1 -8 3 -5 6 6 6 11 1 17
-2 13 -5z m-197 -29 c0 -8 -4 -15 -9 -15 -13 0 -22 16 -14 24 11 11 23 6 23
-9z m467 -17 c-3 -8 -6 -5 -6 6 -1 11 2 17 5 13 3 -3 4 -12 1 -19z m-227 2 c0
-5 -2 -10 -4 -10 -3 0 -8 5 -11 10 -3 6 -1 10 4 10 6 0 11 -4 11 -10z m-175
-36 c9 3 12 0 8 -10 -4 -12 -8 -12 -22 -2 -9 7 -17 13 -19 14 -1 1 1 10 5 20
7 17 8 17 11 -4 2 -15 9 -22 17 -18z m231 9 c-10 -10 -19 5 -10 18 6 11 8 11
12 0 2 -7 1 -15 -2 -18z m-338 -18 c-3 -3 -9 2 -12 12 -6 14 -5 15 5 6 7 -7
10 -15 7 -18z m368 -12 c-10 -10 -19 5 -10 18 6 11 8 11 12 0 2 -7 1 -15 -2
-18z m-1866 13 c0 -2 -7 -7 -16 -10 -8 -3 -12 -2 -9 4 6 10 25 14 25 6z m1597
-28 c32 -31 33 -31 48 -12 12 16 14 17 15 2 0 -9 -6 -18 -12 -21 -7 -2 -10 -8
-5 -12 4 -5 13 -3 19 3 15 15 28 16 28 2 0 -5 -7 -10 -15 -10 -8 0 -15 -2 -15
-4 0 -3 26 -40 59 -83 32 -43 72 -105 89 -138 37 -74 81 -216 78 -250 -2 -14
0 -25 4 -25 9 0 5 -229 -5 -280 -4 -19 -8 -43 -8 -52 -1 -19 -17 -26 -17 -8 0
6 -8 10 -17 10 -15 0 -16 2 -3 10 12 8 13 12 2 19 -10 6 -8 10 10 14 22 6 22
7 3 22 -11 8 -15 15 -10 14 21 -3 35 1 35 11 0 6 -8 10 -17 11 -13 0 -11 3 7
11 25 11 25 11 3 15 -13 3 -23 8 -23 13 0 5 6 7 14 4 8 -3 17 -1 21 5 3 6 -1
11 -9 11 -8 0 -18 4 -21 10 -3 5 0 7 8 4 19 -7 29 9 21 30 -5 14 -9 14 -23 4
-13 -10 -13 -9 2 8 20 24 22 38 5 28 -10 -6 -10 -5 -1 7 16 20 12 67 -7 79
-11 7 -12 10 -2 10 15 0 10 50 -11 123 -9 32 -14 37 -31 33 -20 -5 -20 -4 -3
9 18 13 18 15 -3 55 -15 30 -26 40 -37 36 -13 -5 -14 -4 -4 8 16 20 -5 64 -22
47 -6 -6 -15 -11 -21 -11 -5 0 -1 6 10 14 10 8 16 18 12 22 -4 4 -14 1 -23 -6
-13 -11 -14 -10 -9 4 3 9 10 16 16 16 5 0 6 5 3 10 -5 8 -12 7 -23 -2 -15 -12
-16 -11 -3 5 18 23 7 34 -16 16 -15 -11 -16 -11 -5 1 18 21 15 29 -10 24 -19
-4 -19 -3 -5 4 17 7 17 9 -2 31 -17 20 -23 22 -36 11 -9 -7 -15 -8 -15 -2 0 6
5 12 12 14 7 3 8 9 3 18 -6 10 -11 9 -23 -6 -13 -18 -14 -18 -7 4 4 14 1 28
-9 38 -9 8 -16 11 -16 5 0 -6 -4 -11 -9 -11 -5 0 -7 9 -4 20 3 11 0 20 -6 20
-6 0 -11 5 -11 10 0 17 13 11 47 -22z m230 10 c-3 -8 -6 -5 -6 6 -1 11 2 17 5
13 3 -3 4 -12 1 -19z m-195 -10 c-7 -7 -12 -8 -12 -2 0 14 12 26 19 19 2 -3
-1 -11 -7 -17z m259 -11 c-13 -13 -26 -3 -16 12 3 6 11 8 17 5 6 -4 6 -10 -1
-17z m-31 -7 c0 -5 -4 -10 -10 -10 -5 0 -10 5 -10 10 0 6 5 10 10 10 6 0 10
-4 10 -10z m55 -21 c-10 -15 -25 -10 -19 6 4 8 10 12 15 9 5 -3 7 -10 4 -15z
m-205 -19 c0 -5 -8 -10 -17 -10 -15 0 -16 2 -3 10 19 12 20 12 20 0z m225 -11
c-10 -15 -25 -10 -19 6 4 8 10 12 15 9 5 -3 7 -10 4 -15z m-205 -24 c0 -8 5
-15 10 -15 6 0 10 -7 10 -16 0 -10 6 -14 14 -11 10 4 12 0 8 -15 -3 -14 -1
-19 6 -14 7 4 12 1 12 -8 0 -27 -14 -17 -53 39 -27 40 -34 55 -22 55 8 0 15
-7 15 -15z m234 -12 c3 -10 9 -24 12 -30 3 -7 1 -13 -5 -13 -6 0 -11 7 -11 15
0 8 -4 15 -10 15 -5 0 -10 7 -10 15 0 21 16 19 24 -2z m36 -61 c0 -13 -12 -22
-22 -16 -10 6 -1 24 13 24 5 0 9 -4 9 -8z m-198 -44 c-7 -7 -12 -8 -12 -2 0
14 12 26 19 19 2 -3 -1 -11 -7 -17z m213 1 c-10 -15 -25 -10 -19 6 4 8 10 12
15 9 5 -3 7 -10 4 -15z m-2310 -27 c-38 -20 -91 -51 -116 -69 -81 -56 -163
-174 -204 -296 -13 -40 -25 -63 -25 -52 0 38 47 151 90 215 54 82 136 153 231
201 96 49 115 50 24 1z m2117 -4 c-7 -7 -12 -8 -12 -2 0 14 12 26 19 19 2 -3
-1 -11 -7 -17z m177 -32 c-2 -20 -2 -20 -6 2 -2 12 -9 22 -14 22 -5 0 -9 5 -9
11 0 8 5 8 15 -1 8 -7 14 -22 14 -34z m27 17 c-10 -10 -19 5 -10 18 6 11 8 11
12 0 2 -7 1 -15 -2 -18z m-186 -13 c0 -5 -4 -10 -10 -10 -5 0 -10 5 -10 10 0
6 5 10 10 10 6 0 10 -4 10 -10z m210 -9 c0 -6 -4 -13 -10 -16 -5 -3 -10 1 -10
9 0 9 5 16 10 16 6 0 10 -4 10 -9z m-190 -20 c0 -6 -4 -13 -10 -16 -5 -3 -10
1 -10 9 0 9 5 16 10 16 6 0 10 -4 10 -9z m196 -38 c-10 -10 -19 5 -10 18 6 11
8 11 12 0 2 -7 1 -15 -2 -18z m-190 -10 c-10 -10 -19 5 -10 18 6 11 8 11 12 0
2 -7 1 -15 -2 -18z m-2070 -21 c-17 -16 -18 -16 -5 5 7 12 15 20 18 17 3 -2
-3 -12 -13 -22z m2088 3 c-7 -16 -24 -21 -24 -6 0 8 7 13 27 20 1 1 0 -6 -3
-14z m191 -12 c5 -16 9 -33 10 -39 2 -6 6 -22 10 -34 5 -16 3 -21 -6 -18 -12
4 -20 25 -23 66 0 12 -4 22 -8 22 -5 0 -8 7 -8 15 0 25 17 17 25 -12z m835 3
c0 -3 -4 -8 -10 -11 -5 -3 -10 -1 -10 4 0 6 5 11 10 11 6 0 10 -2 10 -4z
m-1253 -12 c-3 -3 -12 -4 -19 -1 -8 3 -5 6 6 6 11 1 17 -2 13 -5z m237 -9 c-4
-8 -11 -15 -16 -15 -6 0 -5 6 2 15 7 8 14 15 16 15 2 0 1 -7 -2 -15z m-2114 1
c0 -2 -8 -10 -17 -17 -16 -13 -17 -12 -4 4 13 16 21 21 21 13z m1886 -38 c4
-18 7 -36 6 -40 -1 -5 2 -8 8 -8 5 0 7 -7 4 -15 -4 -8 -2 -15 4 -15 6 0 9 -11
7 -25 -1 -14 1 -25 5 -25 4 0 6 -12 4 -27 -1 -15 3 -31 9 -35 9 -6 8 -8 -2 -8
-11 0 -11 -3 -1 -15 10 -12 10 -15 -4 -15 -12 0 -16 10 -17 38 -1 50 -8 92
-19 122 -6 14 -12 34 -14 45 -2 11 -7 28 -11 38 -4 9 -3 17 3 17 6 0 14 -15
18 -32z m378 16 c3 -8 2 -12 -4 -9 -6 3 -10 10 -10 16 0 14 7 11 14 -7z m-139
-14 c-3 -5 -12 -10 -18 -10 -7 0 -6 4 3 10 19 12 23 12 15 0z m7 -46 c-3 -16
-1 -24 4 -21 6 3 10 -2 10 -12 0 -10 -6 -18 -13 -18 -7 0 -11 2 -9 4 2 3 0 17
-4 33 -6 20 -5 30 3 34 7 2 13 5 13 5 1 1 -1 -11 -4 -25z m-2321 -8 c-7 -8
-25 -45 -41 -83 -16 -37 -30 -61 -30 -52 0 29 67 165 77 155 3 -3 0 -12 -6
-20z m2474 -16 c3 -6 -1 -7 -9 -4 -18 7 -21 14 -7 14 6 0 13 -4 16 -10z m35 0
c0 -5 -2 -10 -4 -10 -3 0 -8 5 -11 10 -3 6 -1 10 4 10 6 0 11 -4 11 -10z m-30
-40 c0 -5 -2 -10 -4 -10 -3 0 -8 5 -11 10 -3 6 -1 10 4 10 6 0 11 -4 11 -10z
m40 0 c0 -5 -4 -10 -10 -10 -5 0 -10 5 -10 10 0 6 5 10 10 10 6 0 10 -4 10
-10z m-3055 -49 c-7 -22 -11 -41 -9 -44 3 -2 -1 -7 -9 -10 -10 -4 -10 4 2 44
8 27 18 49 23 49 4 0 1 -18 -7 -39z m2879 -2 c-2 -35 -9 -45 -19 -30 -3 6 0
11 7 11 10 0 9 3 -1 9 -12 8 -12 12 -2 25 18 21 17 21 15 -15z m146 0 c0 -6
-4 -7 -10 -4 -5 3 -10 11 -10 16 0 6 5 7 10 4 6 -3 10 -11 10 -16z m30 11 c0
-5 -4 -10 -10 -10 -5 0 -10 5 -10 10 0 6 5 10 10 10 6 0 10 -4 10 -10z m-3014
-71 c-8 -35 -14 -54 -15 -41 -1 26 20 115 25 109 2 -2 -2 -33 -10 -68z m3019
31 c3 -5 -1 -10 -9 -10 -9 0 -16 5 -16 10 0 6 4 10 9 10 6 0 13 -4 16 -10z
m-3412 -52 c-3 -18 -10 -40 -15 -48 -8 -12 -8 -11 -4 3 3 10 6 32 6 48 0 16 4
29 10 29 5 0 7 -14 3 -32z m814 10 c-3 -8 -6 -5 -6 6 -1 11 2 17 5 13 3 -3 4
-12 1 -19z m2413 2 c0 -5 -2 -10 -4 -10 -3 0 -8 5 -11 10 -3 6 -1 10 4 10 6 0
11 -4 11 -10z m185 0 c3 -5 -1 -10 -9 -10 -9 0 -16 5 -16 10 0 6 4 10 9 10 6
0 13 -4 16 -10z m-3075 -4 c0 -3 -4 -8 -10 -11 -5 -3 -10 -1 -10 4 0 6 5 11
10 11 6 0 10 -2 10 -4z m2676 -23 c0 -10 -5 -21 -11 -25 -6 -5 -4 -12 5 -18 8
-5 10 -10 4 -10 -5 0 -10 -18 -9 -40 1 -22 -3 -40 -8 -40 -5 0 -7 -7 -3 -15 3
-8 1 -15 -4 -15 -5 0 -7 -7 -4 -15 4 -9 0 -15 -7 -15 -11 0 -11 -3 1 -10 8 -5
10 -10 4 -10 -7 0 -14 -10 -18 -23 -3 -13 -13 -41 -23 -63 -9 -21 -16 -42 -15
-46 1 -5 -5 -8 -13 -8 -13 0 -14 4 -3 23 6 12 13 29 14 37 2 8 8 16 13 18 6 2
11 12 11 21 0 10 8 42 19 72 23 67 21 57 21 134 0 49 3 65 14 65 8 0 13 -8 12
-17z m-2359 -25 c-3 -7 -5 -2 -5 12 0 14 2 19 5 13 2 -7 2 -19 0 -25z m148
-23 c-3 -26 -8 -45 -11 -43 -2 3 -1 26 2 52 4 25 9 44 12 42 2 -3 1 -26 -3
-51z m2575 45 c0 -5 -2 -10 -4 -10 -3 0 -8 5 -11 10 -3 6 -1 10 4 10 6 0 11
-4 11 -10z m27 -15 c0 -8 -4 -12 -9 -9 -4 3 -8 9 -8 15 0 5 4 9 8 9 5 0 9 -7
9 -15z m-3310 -47 c-2 -13 -4 -5 -4 17 -1 22 1 32 4 23 2 -10 2 -28 0 -40z
m450 15 c-3 -10 -5 -4 -5 12 0 17 2 24 5 18 2 -7 2 -21 0 -30z m2689 8 c0 -16
-3 -17 -14 -9 -12 10 -7 19 13 28 1 0 1 -9 1 -19z m138 3 c3 -8 2 -12 -4 -9
-6 3 -10 10 -10 16 0 14 7 11 14 -7z m-2997 -86 c-2 -18 -4 -6 -4 27 0 33 2
48 4 33 2 -15 2 -42 0 -60z m270 -40 c-2 -24 -4 -5 -4 42 0 47 2 66 4 43 2
-24 2 -62 0 -85z m2763 84 c0 -15 -2 -15 -10 -2 -13 20 -13 33 0 25 6 -3 10
-14 10 -23z m-3083 3 c0 -8 -4 -12 -9 -9 -5 3 -6 10 -3 15 9 13 12 11 12 -6z
m3040 -7 c-3 -8 -6 -5 -6 6 -1 11 2 17 5 13 3 -3 4 -12 1 -19z m-3540 -65 c-2
-16 -4 -3 -4 27 0 30 2 43 4 28 2 -16 2 -40 0 -55z m720 15 c-2 -13 -4 -3 -4
22 0 25 2 35 4 23 2 -13 2 -33 0 -45z m2686 48 c4 -10 1 -13 -9 -9 -15 6 -19
23 -5 23 5 0 11 -7 14 -14z m-2436 -63 c-3 -10 -5 -2 -5 17 0 19 2 27 5 18 2
-10 2 -26 0 -35z m2433 14 c0 -5 -4 -5 -10 -2 -5 3 -10 14 -10 23 0 15 2 15
10 2 5 -8 10 -19 10 -23z m175 22 c11 -16 1 -19 -13 -3 -7 8 -8 14 -3 14 5 0
13 -5 16 -11z m-2458 -51 c-3 -8 -6 -5 -6 6 -1 11 2 17 5 13 3 -3 4 -12 1 -19z
m2260 -46 c-7 -22 -15 -43 -18 -46 -8 -9 -4 27 5 42 4 6 4 17 1 22 -3 6 -1 10
5 10 7 0 9 9 5 23 -5 17 -4 19 4 6 7 -10 6 -29 -2 -57z m193 47 c0 -6 -4 -7
-10 -4 -5 3 -10 11 -10 16 0 6 5 7 10 4 6 -3 10 -11 10 -16z m-3360 -5 c0 -8
-5 -12 -10 -9 -6 4 -8 11 -5 16 9 14 15 11 15 -7z m-213 -46 c-3 -7 -5 -2 -5
12 0 14 2 19 5 13 2 -7 2 -19 0 -25z m980 0 c-3 -8 -6 -5 -6 6 -1 11 2 17 5
13 3 -3 4 -12 1 -19z m2583 12 c0 -5 -4 -10 -10 -10 -5 0 -10 5 -10 10 0 6 5
10 10 10 6 0 10 -4 10 -10z m-479 -27 c-12 -20 -14 -14 -5 12 4 9 9 14 11 11
3 -2 0 -13 -6 -23z m-2874 -15 c-3 -7 -5 -2 -5 12 0 14 2 19 5 13 2 -7 2 -19
0 -25z m3128 12 c3 -5 -3 -10 -15 -10 -12 0 -18 5 -15 10 3 6 10 10 15 10 5 0
12 -4 15 -10z m215 -16 c0 -8 -4 -12 -10 -9 -5 3 -10 10 -10 16 0 5 5 9 10 9
6 0 10 -7 10 -16z m-3176 -94 c8 -47 17 -93 21 -102 4 -10 3 -18 -2 -18 -10 0
-44 159 -42 200 1 35 6 18 23 -80z m-234 70 c0 -11 -4 -20 -9 -20 -5 0 -11 9
-14 20 -3 13 0 20 9 20 8 0 14 -9 14 -20z m470 16 c0 -3 -4 -8 -10 -11 -5 -3
-10 -1 -10 4 0 6 5 11 10 11 6 0 10 -2 10 -4z m2688 -21 c-3 -3 -9 2 -12 12
-6 14 -5 15 5 6 7 -7 10 -15 7 -18z m32 11 c0 -3 -4 -8 -10 -11 -5 -3 -10 -1
-10 4 0 6 5 11 10 11 6 0 10 -2 10 -4z m-284 -43 c-8 -15 -15 -25 -16 -21 0
12 23 58 27 54 3 -2 -2 -17 -11 -33z m304 17 c-8 -5 -17 -7 -19 -4 -3 3 1 9 9
14 8 5 17 7 19 4 3 -3 -1 -9 -9 -14z m190 4 c0 -8 -4 -12 -10 -9 -5 3 -10 10
-10 16 0 5 5 9 10 9 6 0 10 -7 10 -16z m-220 -15 c0 -13 -13 -11 -35 5 -18 13
-18 14 8 9 15 -3 27 -9 27 -14z m-3180 -9 c0 -5 -4 -10 -10 -10 -5 0 -10 5
-10 10 0 6 5 10 10 10 6 0 10 -4 10 -10z m3540 0 c0 -5 -2 -10 -4 -10 -3 0 -8
5 -11 10 -3 6 -1 10 4 10 6 0 11 -4 11 -10z m-400 -11 c0 -5 4 -8 9 -4 5 3 12
1 16 -5 7 -11 -5 -13 -29 -4 -18 7 -22 24 -6 24 6 0 10 -5 10 -11z m66 -1 c4
-7 3 -8 -4 -4 -8 5 -12 0 -12 -13 0 -12 -5 -21 -11 -21 -5 0 -8 3 -6 8 2 4 7
15 10 25 7 20 13 21 23 5z m184 -9 c0 -6 -4 -7 -10 -4 -5 3 -10 11 -10 16 0 6
5 7 10 4 6 -3 10 -11 10 -16z m-2580 -24 c0 -5 -5 -3 -10 5 -5 8 -10 20 -10
25 0 6 5 3 10 -5 5 -8 10 -19 10 -25z m-800 15 c0 -5 -4 -10 -10 -10 -5 0 -10
5 -10 10 0 6 5 10 10 10 6 0 10 -4 10 -10z m3134 -19 c3 -5 -5 -8 -19 -7 -14
0 -25 4 -25 9 0 10 38 9 44 -2z m212 -39 c-9 -9 -16 -12 -16 -6 0 6 3 14 8 18
4 4 8 12 8 17 3 21 7 23 11 5 3 -10 -2 -26 -11 -34z m-2372 -41 c29 -73 27
-98 -3 -30 -20 45 -38 108 -28 99 3 -3 17 -34 31 -69z m2182 44 c0 -14 -7 -25
-13 -25 -10 0 -10 6 -1 25 14 31 16 31 14 0z m-3151 5 c3 -5 1 -10 -4 -10 -6
0 -11 5 -11 10 0 6 2 10 4 10 3 0 8 -4 11 -10z m3113 -10 c5 -13 3 -13 -12 -1
-22 19 -31 8 -10 -13 9 -9 13 -20 10 -24 -4 -3 -11 0 -17 8 -8 13 -10 13 -19
0 -8 -13 -10 -12 -10 3 0 9 5 17 10 17 6 0 9 3 9 8 -5 27 30 29 39 2z m189 -2
c-3 -8 -6 -5 -6 6 -1 11 2 17 5 13 3 -3 4 -12 1 -19z m-2392 2 c-3 -5 -2 -10
4 -10 6 0 8 -7 5 -15 -4 -8 -1 -15 6 -15 7 0 10 -7 6 -15 -3 -8 -1 -15 5 -15
6 0 7 -4 4 -10 -3 -5 -1 -10 5 -10 6 0 9 -4 5 -9 -3 -5 -1 -12 5 -16 6 -4 8
-11 5 -16 -4 -5 -2 -9 4 -9 6 0 13 -11 17 -25 3 -14 10 -25 15 -25 5 0 5 -7 2
-17 -4 -10 -2 -14 5 -9 7 4 10 -1 9 -13 -1 -15 -4 -17 -14 -9 -7 6 -13 17 -13
24 0 8 -4 14 -10 14 -5 0 -6 7 -3 17 4 10 3 14 -5 9 -7 -4 -16 8 -23 34 -7 22
-16 40 -21 40 -5 0 -6 5 -3 10 3 6 1 10 -4 10 -6 0 -10 3 -9 8 1 4 -2 16 -8
27 -9 17 -10 30 -5 50 0 3 6 5 12 5 5 0 7 -4 4 -10z m-425 -4 c0 -3 -4 -8 -10
-11 -5 -3 -10 -1 -10 4 0 6 5 11 10 11 6 0 10 -2 10 -4z m3004 -12 c3 -8 2
-12 -4 -9 -6 3 -10 10 -10 16 0 14 7 11 14 -7z m-3484 -4 c0 -5 -4 -10 -10
-10 -5 0 -10 5 -10 10 0 6 5 10 10 10 6 0 10 -4 10 -10z m3277 -22 c-3 -8 -6
-5 -6 6 -1 11 2 17 5 13 3 -3 4 -12 1 -19z m-159 -12 c-8 -6 -15 -15 -16 -21
0 -5 -6 -11 -12 -13 -7 -3 -5 8 5 27 9 18 21 29 27 25 8 -5 6 -10 -4 -18z
m-3108 4 c0 -5 -4 -10 -10 -10 -5 0 -10 5 -10 10 0 6 5 10 10 10 6 0 10 -4 10
-10z m3027 -12 c-3 -8 -6 -5 -6 6 -1 11 2 17 5 13 3 -3 4 -12 1 -19z m43 2 c0
-5 -4 -10 -10 -10 -5 0 -10 5 -10 10 0 6 5 10 10 10 6 0 10 -4 10 -10z m384
-6 c3 -8 2 -12 -4 -9 -6 3 -10 10 -10 16 0 14 7 11 14 -7z m-3184 -4 c0 -5 -2
-10 -4 -10 -3 0 -8 5 -11 10 -3 6 -1 10 4 10 6 0 11 -4 11 -10z m3040 6 c0
-11 -19 -15 -25 -6 -3 5 1 10 9 10 9 0 16 -2 16 -4z m-3300 -10 c0 -3 -4 -8
-10 -11 -5 -3 -10 -1 -10 4 0 6 5 11 10 11 6 0 10 -2 10 -4z m480 -16 c0 -5
-2 -10 -4 -10 -3 0 -8 5 -11 10 -3 6 -1 10 4 10 6 0 11 -4 11 -10z m2560 0 c0
-5 -4 -10 -10 -10 -5 0 -10 5 -10 10 0 6 5 10 10 10 6 0 10 -4 10 -10z m234
-22 c-9 -14 -23 2 -17 18 4 12 8 13 14 3 4 -7 5 -17 3 -21z m-275 -10 c6 -16
2 -27 -14 -42 -12 -12 -25 -28 -28 -36 -4 -10 -6 -8 -6 8 -1 12 4 22 10 22 6
0 9 9 6 19 -3 14 -1 18 9 14 17 -6 18 9 2 25 -9 9 -9 12 0 12 7 0 16 -10 21
-22z m71 12 c0 -5 -4 -10 -10 -10 -5 0 -10 -7 -10 -16 0 -8 -4 -12 -10 -9 -9
6 -14 -8 -11 -28 1 -5 -3 -6 -8 -3 -5 4 -12 0 -14 -6 -3 -8 -6 -6 -6 5 -1 9 3
17 7 17 4 0 16 14 25 30 18 29 37 40 37 20z m-2812 -85 c0 -5 -6 4 -13 20 -8
17 -14 37 -14 45 0 8 7 -1 14 -20 7 -19 13 -39 13 -45z m19 68 c-4 -3 -2 -12
4 -20 9 -9 8 -13 0 -13 -6 0 -11 2 -11 4 0 2 -3 11 -6 20 -4 10 -1 16 7 16 7
0 9 -3 6 -7z m713 -28 c0 -5 -5 -3 -10 5 -5 8 -10 20 -10 25 0 6 5 3 10 -5 5
-8 10 -19 10 -25z m2256 8 c-10 -10 -19 5 -10 18 6 11 8 11 12 0 2 -7 1 -15
-2 -18z m-3236 7 c0 -5 -5 -10 -11 -10 -5 0 -7 5 -4 10 3 6 8 10 11 10 2 0 4
-4 4 -10z m14 -35 c-4 -8 -10 -12 -15 -9 -11 6 -2 24 11 24 5 0 7 -7 4 -15z
m3206 0 c0 -8 -4 -15 -10 -15 -5 0 -10 7 -10 15 0 8 5 15 10 15 6 0 10 -7 10
-15z m-2925 -40 c6 -30 6 -30 -10 4 -17 38 -19 49 -6 36 5 -6 12 -23 16 -40z
m713 20 c6 -14 10 -25 8 -25 -2 0 -11 11 -20 25 -9 14 -13 25 -8 25 5 0 14
-11 20 -25z m1964 -18 c-7 -8 -9 -16 -6 -19 2 -3 -2 -8 -11 -11 -20 -8 -19 9
3 31 19 21 31 20 14 -1z m-72 9 c0 -2 -7 -7 -16 -10 -8 -3 -12 -2 -9 4 6 10
25 14 25 6z m26 -23 c-10 -10 -19 5 -10 18 6 11 8 11 12 0 2 -7 1 -15 -2 -18z
m274 18 c0 -6 -4 -13 -10 -16 -5 -3 -10 1 -10 9 0 9 5 16 10 16 6 0 10 -4 10
-9z m154 -17 c3 -8 2 -12 -4 -9 -6 3 -10 10 -10 16 0 14 7 11 14 -7z m-3314
-8 c0 -3 -4 -8 -10 -11 -5 -3 -10 -1 -10 4 0 6 5 11 10 11 6 0 10 -2 10 -4z
m1000 -6 c0 -5 -5 -10 -11 -10 -5 0 -7 5 -4 10 3 6 8 10 11 10 2 0 4 -4 4 -10z
m1857 -12 c-3 -8 -6 -5 -6 6 -1 11 2 17 5 13 3 -3 4 -12 1 -19z m273 3 c0 -6
-4 -13 -10 -16 -5 -3 -10 1 -10 9 0 9 5 16 10 16 6 0 10 -4 10 -9z m-2855 -11
c3 -5 1 -10 -4 -10 -6 0 -11 5 -11 10 0 6 2 10 4 10 3 0 8 -4 11 -10z m2565
-5 c0 -8 -6 -15 -14 -15 -8 0 -17 -6 -19 -12 -4 -10 -8 -9 -16 2 -6 8 -11 20
-11 25 0 6 4 4 8 -3 9 -13 42 -6 42 9 0 5 2 9 5 9 3 0 5 -7 5 -15z m48 -3
c-10 -2 -18 -10 -18 -18 0 -8 -6 -14 -14 -14 -8 0 -17 -6 -19 -12 -3 -8 -6 -9
-6 -2 -1 18 50 64 63 57 7 -5 5 -9 -6 -11z m-2640 -23 c-3 -8 -7 -3 -11 10 -4
17 -3 21 5 13 5 -5 8 -16 6 -23z m783 -1 c17 -24 18 -29 6 -19 -18 14 -42 51
-33 51 3 0 15 -15 27 -32z m-1021 7 c11 -13 10 -14 -4 -9 -9 3 -16 10 -16 15
0 13 6 11 20 -6z m2789 -32 c13 -3 18 -10 14 -20 -5 -14 -8 -13 -20 3 -7 10
-13 14 -14 8 -1 -14 -18 29 -18 46 0 8 4 4 10 -8 5 -13 18 -26 28 -29z m306
37 c3 -5 1 -10 -4 -10 -6 0 -11 5 -11 10 0 6 2 10 4 10 3 0 8 -4 11 -10z
m-2115 -31 c0 -11 5 -17 10 -14 6 3 10 0 10 -9 0 -8 6 -17 13 -19 7 -3 5 -6
-6 -6 -11 -1 -23 11 -31 29 -7 17 -15 27 -19 23 -4 -3 -7 -1 -7 5 0 7 7 12 15
12 8 0 15 -9 15 -21z m1747 -1 c-3 -8 -6 -5 -6 6 -1 11 2 17 5 13 3 -3 4 -12
1 -19z m334 -15 c-17 -15 -31 -33 -31 -40 0 -7 -4 -13 -9 -13 -17 0 -5 27 23
53 16 15 33 27 38 27 6 0 -4 -12 -21 -27z m-311 -3 c0 -5 -5 -10 -11 -10 -5 0
-7 5 -4 10 3 6 8 10 11 10 2 0 4 -4 4 -10z m-73 -22 c-3 -8 -6 -5 -6 6 -1 11
2 17 5 13 3 -3 4 -12 1 -19z m43 2 c0 -5 -5 -10 -11 -10 -5 0 -7 5 -4 10 3 6
8 10 11 10 2 0 4 -4 4 -10z m55 -9 c-3 -6 -11 -8 -17 -5 -6 4 -5 9 3 15 16 10
23 4 14 -10z m-2740 -1 c3 -5 2 -10 -4 -10 -5 0 -13 5 -16 10 -3 6 -2 10 4 10
5 0 13 -4 16 -10z m275 0 c0 -5 -2 -10 -4 -10 -3 0 -8 5 -11 10 -3 6 -1 10 4
10 6 0 11 -4 11 -10z m723 -17 c-7 -2 -19 -2 -25 0 -7 3 -2 5 12 5 14 0 19 -2
13 -5z m1627 -12 c0 -3 -9 -12 -19 -18 -16 -10 -22 -9 -33 4 -11 14 -10 15 11
8 19 -6 23 -4 18 8 -4 11 -2 14 9 10 7 -3 14 -8 14 -12z m37 13 c-3 -3 -12 -4
-19 -1 -8 3 -5 6 6 6 11 1 17 -2 13 -5z m53 2 c0 -3 -4 -8 -10 -11 -5 -3 -10
-1 -10 4 0 6 5 11 10 11 6 0 10 -2 10 -4z m247 -16 c-1 -22 -17 -28 -17 -7 0
12 9 27 16 27 2 0 2 -9 1 -20z m-2952 0 c3 -5 1 -10 -4 -10 -6 0 -11 5 -11 10
0 6 2 10 4 10 3 0 8 -4 11 -10z m285 0 c0 -5 -4 -10 -10 -10 -5 0 -10 5 -10
10 0 6 5 10 10 10 6 0 10 -4 10 -10z m800 -38 c0 -3 -9 3 -20 13 -11 10 -20
23 -20 28 0 6 9 0 20 -13 11 -13 20 -25 20 -28z m1472 -6 c-3 -5 -11 -1 -19 9
-20 28 -16 41 6 19 10 -10 16 -23 13 -28z m112 29 c-4 -8 -10 -12 -15 -9 -5 3
-12 -2 -15 -10 -3 -9 -10 -13 -15 -10 -15 9 -10 19 14 30 32 16 37 16 31 -1z
m-1651 -2 c-7 -2 -19 -2 -25 0 -7 3 -2 5 12 5 14 0 19 -2 13 -5z m333 -39 c11
-12 31 -25 42 -29 12 -3 22 -11 22 -17 0 -6 8 -8 19 -5 14 3 17 0 14 -14 -4
-16 -13 -13 -69 24 -35 23 -64 48 -64 55 0 7 -4 10 -10 7 -5 -3 -10 1 -10 11
0 14 2 15 18 3 9 -8 26 -23 38 -35z m354 36 c12 -7 12 -12 2 -22 -9 -9 -12 -8
-12 6 0 9 -4 14 -10 11 -5 -3 -10 -1 -10 4 0 13 10 14 30 1z m805 0 c3 -5 1
-10 -4 -10 -6 0 -11 5 -11 10 0 6 2 10 4 10 3 0 8 -4 11 -10z m368 -5 c-3 -9
-8 -14 -10 -11 -3 3 -2 9 2 15 9 16 15 13 8 -4z m-2578 -5 c3 -5 1 -10 -4 -10
-6 0 -11 5 -11 10 0 6 2 10 4 10 3 0 8 -4 11 -10z m2625 1 c0 -6 -4 -13 -10
-16 -5 -3 -10 1 -10 9 0 9 5 16 10 16 6 0 10 -4 10 -9z m-2905 -11 c3 -5 1
-10 -4 -10 -6 0 -11 5 -11 10 0 6 2 10 4 10 3 0 8 -4 11 -10z m2469 -7 c6 -15
8 -15 16 -3 5 8 12 11 16 7 4 -4 -1 -14 -12 -22 -26 -19 -1 -19 36 0 31 16 37
11 20 -15 -6 -10 -10 -11 -10 -3 0 9 -12 6 -36 -8 -27 -15 -35 -16 -31 -6 3 8
0 20 -6 26 -6 6 -7 11 -3 11 5 0 3 7 -4 15 -7 9 -8 15 -2 15 5 0 13 -8 16 -17z
m108 -5 c-7 -7 -12 -8 -12 -2 0 14 12 26 19 19 2 -3 -1 -11 -7 -17z m-832 2
c0 -5 -5 -10 -11 -10 -5 0 -7 5 -4 10 3 6 8 10 11 10 2 0 4 -4 4 -10z m267 4
c-3 -3 -12 -4 -19 -1 -8 3 -5 6 6 6 11 1 17 -2 13 -5z m423 -3 c0 -5 2 -16 5
-23 4 -10 -10 -19 -48 -31 -62 -20 -91 -22 -82 -6 4 6 13 8 21 5 8 -3 14 -1
14 5 0 6 7 9 15 5 8 -3 15 -1 15 4 0 6 12 10 26 10 21 0 25 4 21 20 -3 11 -1
20 4 20 5 0 9 -4 9 -9z m-1297 -60 c-2 -3 -18 10 -36 29 l-32 34 36 -30 c20
-16 34 -31 32 -33z m1737 55 c0 -10 -65 -66 -76 -66 -7 0 -14 6 -17 13 -4 10
2 13 19 9 18 -3 24 0 24 12 0 10 5 14 10 11 6 -3 13 1 16 9 5 14 24 23 24 12z
m-1837 -13 c-7 -2 -19 -2 -25 0 -7 3 -2 5 12 5 14 0 19 -2 13 -5z m759 -5
c-21 -21 -13 -32 8 -13 18 17 20 17 14 2 -3 -9 -2 -17 4 -17 6 0 12 6 15 13 2
6 7 10 10 7 3 -3 -1 -13 -8 -23 -10 -15 -21 -17 -44 -12 -17 4 -31 11 -31 16
0 13 23 38 35 39 5 0 4 -5 -3 -12z m-1782 -8 c0 -5 -2 -10 -4 -10 -3 0 -8 5
-11 10 -3 6 -1 10 4 10 6 0 11 -4 11 -10z m2325 0 c3 -5 1 -10 -4 -10 -6 0
-11 5 -11 10 0 6 2 10 4 10 3 0 8 -4 11 -10z m-1788 -22 c-3 -8 -6 -5 -6 6 -1
11 2 17 5 13 3 -3 4 -12 1 -19z m507 16 c17 -7 22 -34 6 -34 -5 0 -10 6 -10
14 0 8 -6 17 -12 19 -7 3 -10 6 -6 6 3 1 13 -2 22 -5z m826 -4 c0 -5 -4 -10
-10 -10 -5 0 -10 5 -10 10 0 6 5 10 10 10 6 0 10 -4 10 -10z m384 -24 c-3 -14
-10 -26 -15 -26 -11 0 -12 14 -1 24 4 4 8 12 8 17 3 20 4 22 9 17 4 -3 3 -17
-1 -32z m-24 14 c0 -5 -2 -10 -4 -10 -3 0 -8 5 -11 10 -3 6 -1 10 4 10 6 0 11
-4 11 -10z m503 -16 c-10 -7 -25 -13 -33 -13 -8 0 -5 4 8 9 12 5 22 14 22 20
0 6 5 8 11 5 6 -5 4 -12 -8 -21z m287 5 c0 -5 -4 -9 -8 -9 -5 0 -9 7 -9 15 0
8 4 12 9 9 4 -3 8 -9 8 -15z m-586 -4 c-4 -8 -10 -12 -15 -9 -11 6 -2 24 11
24 5 0 7 -7 4 -15z m-2407 -1 c-3 -3 -12 -4 -19 -1 -8 3 -5 6 6 6 11 1 17 -2
13 -5z m250 -16 c-3 -8 -6 -5 -6 6 -1 11 2 17 5 13 3 -3 4 -12 1 -19z m821
-12 c12 -3 12 -4 -3 -3 -11 1 -20 9 -21 17 0 8 1 10 3 3 2 -6 12 -14 21 -17z
m1182 24 c0 -5 -5 -10 -11 -10 -5 0 -7 5 -4 10 3 6 8 10 11 10 2 0 4 -4 4 -10z
m120 1 c0 -6 -4 -13 -10 -16 -5 -3 -10 1 -10 9 0 9 5 16 10 16 6 0 10 -4 10
-9z m-30 -11 c0 -5 -4 -11 -10 -11 -5 -1 -14 -2 -19 -3 -5 0 -12 -4 -16 -8 -4
-4 -13 -4 -21 -1 -8 3 -14 1 -14 -5 0 -12 -48 -13 -56 -1 -3 5 3 10 13 11 25
2 35 4 53 11 14 5 43 13 63 16 4 0 7 -3 7 -9z m-920 -14 c0 5 4 4 8 -1 4 -6
25 -19 47 -30 22 -11 43 -24 46 -29 4 -5 14 -6 23 -3 9 4 16 2 16 -3 0 -6 6
-10 14 -10 7 0 20 -7 27 -17 13 -15 12 -15 -16 -1 -16 9 -45 19 -62 23 -18 3
-33 10 -33 15 0 8 -38 23 -52 21 -5 -1 -8 3 -8 8 0 5 -9 11 -20 14 -11 3 -20
11 -20 17 0 10 3 10 15 0 8 -7 15 -9 15 -4z m1320 10 c0 -9 -30 -14 -35 -6 -4
6 3 10 14 10 12 0 21 -2 21 -4z m-1590 -16 c0 -5 -4 -10 -10 -10 -5 0 -10 5
-10 10 0 6 5 10 10 10 6 0 10 -4 10 -10z m1800 0 c0 -5 -2 -10 -4 -10 -3 0 -8
5 -11 10 -3 6 -1 10 4 10 6 0 11 -4 11 -10z m-250 -10 c0 -5 -3 -9 -7 -9 -20
3 -34 -2 -28 -11 4 -6 -6 -10 -22 -10 l-28 0 35 19 c40 23 50 25 50 11z
m-2380 -10 c0 -5 -2 -10 -4 -10 -3 0 -8 5 -11 10 -3 6 -1 10 4 10 6 0 11 -4
11 -10z m790 -7 c0 -7 -4 -13 -10 -13 -5 0 -10 4 -10 9 0 5 -8 12 -17 14 -10
3 -6 4 10 4 15 -1 27 -7 27 -14z m929 2 c0 -5 -8 -9 -17 -8 -9 1 -20 -4 -24
-10 -6 -9 -8 -8 -8 2 0 7 -6 11 -15 7 -8 -3 -15 0 -15 7 0 8 15 12 40 12 22 0
40 -4 39 -10z m79 3 c-5 -14 -58 -17 -58 -3 0 5 14 11 31 12 19 1 29 -2 27 -9z
m32 3 c0 -6 -4 -13 -10 -16 -5 -3 -10 1 -10 9 0 9 5 16 10 16 6 0 10 -4 10 -9z
m460 -1 c0 -5 -8 -10 -17 -10 -15 0 -16 2 -3 10 19 12 20 12 20 0z m300 -10
c0 -5 -4 -10 -10 -10 -5 0 -10 5 -10 10 0 6 5 10 10 10 6 0 10 -4 10 -10z
m-2870 -10 c0 -5 -5 -10 -11 -10 -5 0 -7 5 -4 10 3 6 8 10 11 10 2 0 4 -4 4
-10z m258 -15 c-3 -3 -9 2 -12 12 -6 14 -5 15 5 6 7 -7 10 -15 7 -18z m282 15
c0 -5 -5 -10 -11 -10 -5 0 -7 5 -4 10 3 6 8 10 11 10 2 0 4 -4 4 -10z m560
-18 c0 -15 -2 -15 -10 -2 -13 20 -13 33 0 25 6 -3 10 -14 10 -23z m1430 18 c0
-5 -5 -10 -11 -10 -5 0 -7 5 -4 10 3 6 8 10 11 10 2 0 4 -4 4 -10z m-2225 -10
c3 -5 2 -10 -4 -10 -5 0 -13 5 -16 10 -3 6 -2 10 4 10 5 0 13 -4 16 -10z
m2185 -10 c0 -5 -8 -10 -17 -10 -15 0 -16 2 -3 10 19 12 20 12 20 0z m93 3
c-7 -2 -19 -2 -25 0 -7 3 -2 5 12 5 14 0 19 -2 13 -5z m247 -14 c0 -6 -4 -7
-10 -4 -5 3 -10 11 -10 16 0 6 5 7 10 4 6 -3 10 -11 10 -16z m-1700 -4 c0 -8
-4 -15 -8 -15 -5 0 -9 7 -9 15 0 8 4 15 9 15 4 0 8 -7 8 -15z m1415 -5 c-3 -5
-13 -10 -21 -10 -8 0 -14 -5 -14 -11 0 -5 -4 -8 -9 -4 -6 3 -25 -3 -44 -14
-19 -11 -51 -24 -71 -29 -30 -9 -36 -8 -36 4 0 11 6 13 20 9 12 -4 20 -2 20 5
0 7 7 9 15 6 9 -3 18 1 21 9 3 7 12 11 21 8 8 -3 18 -2 22 3 18 25 91 48 76
24z m-98 -6 c-3 -3 -12 -4 -19 -1 -8 3 -5 6 6 6 11 1 17 -2 13 -5z m-1197 -14
c0 -5 -5 -10 -11 -10 -5 0 -7 5 -4 10 3 6 8 10 11 10 2 0 4 -4 4 -10z m401 -4
c5 3 9 -1 9 -9 0 -12 -7 -12 -40 -4 -22 6 -40 14 -40 18 0 4 14 4 31 -1 18 -5
36 -7 40 -4z m735 -1 c-11 -8 -29 -14 -40 -14 -20 1 -21 1 -1 6 11 3 24 9 30
14 5 5 14 9 20 9 5 0 1 -7 -9 -15z m-1199 -27 c-3 -7 -5 -2 -5 12 0 14 2 19 5
13 2 -7 2 -19 0 -25z m333 17 c0 -8 -4 -15 -9 -15 -13 0 -22 16 -14 24 11 11
23 6 23 -9z m-1470 -5 c0 -5 -4 -10 -10 -10 -5 0 -10 5 -10 10 0 6 5 10 10 10
6 0 10 -4 10 -10z m1230 0 c0 -5 -5 -10 -11 -10 -5 0 -7 5 -4 10 3 6 8 10 11
10 2 0 4 -4 4 -10z m270 -5 c0 -8 -4 -15 -10 -15 -5 0 -10 7 -10 15 0 8 5 15
10 15 6 0 10 -7 10 -15z m-320 -17 c0 -16 -3 -19 -11 -11 -6 6 -8 16 -5 22 11
17 16 13 16 -11z m467 16 c-3 -3 -12 -4 -19 -1 -8 3 -5 6 6 6 11 1 17 -2 13
-5z m620 0 c-3 -3 -12 -4 -19 -1 -8 3 -5 6 6 6 11 1 17 -2 13 -5z m-732 -14
c-3 -5 -10 -10 -16 -10 -5 0 -9 5 -9 10 0 6 7 10 16 10 8 0 12 -4 9 -10z m145
0 c0 -5 -4 -10 -10 -10 -5 0 -10 5 -10 10 0 6 5 10 10 10 6 0 10 -4 10 -10z
m40 2 c0 -13 -12 -22 -22 -16 -10 6 -1 24 13 24 5 0 9 -4 9 -8z m507 2 c-3 -3
-12 -4 -19 -1 -8 3 -5 6 6 6 11 1 17 -2 13 -5z m453 2 c0 -2 -7 -7 -16 -10 -8
-3 -12 -2 -9 4 6 10 25 14 25 6z m-1110 -15 c0 -5 10 -7 23 -4 17 4 19 3 11
-6 -13 -14 -67 -4 -58 10 7 12 24 12 24 0z m185 -1 c-3 -5 -10 -10 -16 -10 -5
0 -9 5 -9 10 0 6 7 10 16 10 8 0 12 -4 9 -10z m426 -25 c14 1 29 4 35 7 23 13
63 17 70 6 4 -6 3 -8 -4 -4 -6 3 -14 2 -17 -4 -4 -6 -15 -8 -26 -5 -11 4 -19
2 -19 -5 0 -7 -8 -9 -20 -5 -11 4 -20 2 -20 -4 0 -6 -4 -11 -9 -11 -10 0 -61
46 -61 56 0 4 10 -2 23 -13 12 -11 33 -19 48 -18z m-6 25 c3 -5 2 -10 -4 -10
-5 0 -13 5 -16 10 -3 6 -2 10 4 10 5 0 13 -4 16 -10z m-2145 -4 c0 -3 -4 -8
-10 -11 -5 -3 -10 -1 -10 4 0 6 5 11 10 11 6 0 10 -2 10 -4z m1184 -11 c-4 -8
-8 -15 -10 -15 -2 0 -4 7 -4 15 0 8 4 15 10 15 5 0 7 -7 4 -15z m449 1 c10 4
17 1 17 -6 0 -7 7 -10 15 -7 8 4 17 2 20 -4 4 -5 10 -7 15 -4 11 7 40 -5 40
-16 0 -5 -7 -9 -15 -9 -8 0 -15 4 -15 8 0 4 -12 7 -27 6 -15 0 -45 4 -65 9
-32 8 -36 12 -27 24 8 9 14 10 19 3 4 -6 14 -8 23 -4z m127 10 c0 -3 -4 -8
-10 -11 -5 -3 -10 -1 -10 4 0 6 5 11 10 11 6 0 10 -2 10 -4z m50 -6 c0 -5 -7
-10 -16 -10 -8 0 -12 5 -9 10 3 6 10 10 16 10 5 0 9 -4 9 -10z m40 0 c0 -5 -5
-10 -11 -10 -5 0 -7 5 -4 10 3 6 8 10 11 10 2 0 4 -4 4 -10z m205 0 c3 -5 1
-10 -4 -10 -6 0 -11 5 -11 10 0 6 2 10 4 10 3 0 8 -4 11 -10z m-175 -10 c0 -5
-2 -10 -4 -10 -3 0 -8 5 -11 10 -3 6 -1 10 4 10 6 0 11 -4 11 -10z m87 4 c-3
-3 -12 -4 -19 -1 -8 3 -5 6 6 6 11 1 17 -2 13 -5z m-1934 -29 c-10 -7 -20 -12
-21 -10 -7 7 23 33 31 28 5 -3 0 -11 -10 -18z m1187 9 c0 -8 -5 -12 -10 -9 -6
4 -8 11 -5 16 9 14 15 11 15 -7z m550 -15 c0 -5 -4 -9 -10 -9 -5 0 -10 7 -10
16 0 8 5 12 10 9 6 -3 10 -10 10 -16z m330 0 c0 -4 -7 -6 -15 -3 -8 4 -15 10
-15 15 0 4 7 6 15 3 8 -4 15 -10 15 -15z m-290 -5 c0 -17 -22 -14 -28 4 -2 7
3 12 12 12 9 0 16 -7 16 -16z m55 6 c7 11 25 4 25 -10 0 -5 -15 -9 -34 -8 -24
1 -33 5 -29 15 4 10 9 11 18 3 9 -8 15 -8 20 0z m55 -5 c0 -8 -4 -15 -10 -15
-5 0 -10 7 -10 15 0 8 5 15 10 15 6 0 10 -7 10 -15z m63 2 c5 8 36 9 71 4 25
-3 -8 -12 -65 -18 -58 -5 -62 -4 -50 11 10 12 17 13 26 6 7 -6 16 -7 18 -3z
m-1638 -7 c3 -5 1 -10 -4 -10 -6 0 -11 5 -11 10 0 6 2 10 4 10 3 0 8 -4 11
-10z m955 -15 c0 -8 -2 -15 -4 -15 -2 0 -6 7 -10 15 -3 8 -1 15 4 15 6 0 10
-7 10 -15z m1210 5 c0 -5 -2 -10 -4 -10 -3 0 -8 5 -11 10 -3 6 -1 10 4 10 6 0
11 -4 11 -10z m-50 -20 c0 -5 -2 -10 -4 -10 -3 0 -8 5 -11 10 -3 6 -1 10 4 10
6 0 11 -4 11 -10z m-2080 -10 c0 -5 -2 -10 -4 -10 -3 0 -8 5 -11 10 -3 6 -1
10 4 10 6 0 11 -4 11 -10z m2030 -10 c0 -5 -2 -10 -4 -10 -3 0 -8 5 -11 10 -3
6 -1 10 4 10 6 0 11 -4 11 -10z m-984 -27 c-7 -7 -26 7 -26 19 0 6 6 6 15 -2
9 -7 13 -15 11 -17z m944 11 c0 -8 -19 -13 -24 -6 -3 5 1 9 9 9 8 0 15 -2 15
-3z m-905 -14 c3 -5 1 -10 -4 -10 -6 0 -11 5 -11 10 0 6 2 10 4 10 3 0 8 -4
11 -10z m45 -16 c0 -8 -5 -12 -10 -9 -6 4 -8 11 -5 16 9 14 15 11 15 -7z m40
-10 c0 -8 -5 -12 -10 -9 -6 4 -8 11 -5 16 9 14 15 11 15 -7z m690 6 c0 -5 -5
-10 -11 -10 -5 0 -7 5 -4 10 3 6 8 10 11 10 2 0 4 -4 4 -10z m-642 -25 c-3 -3
-9 2 -12 12 -6 14 -5 15 5 6 7 -7 10 -15 7 -18z m50 -10 c-3 -3 -9 2 -12 12
-6 14 -5 15 5 6 7 -7 10 -15 7 -18z m502 10 c11 -13 10 -14 -4 -9 -9 3 -16 10
-16 15 0 13 6 11 20 -6z m-452 -20 c-3 -3 -9 2 -12 12 -6 14 -5 15 5 6 7 -7
10 -15 7 -18z m46 10 c3 -8 1 -15 -4 -15 -6 0 -10 7 -10 15 0 8 2 15 4 15 2 0
6 -7 10 -15z m356 0 c7 -9 8 -15 2 -15 -5 0 -12 7 -16 15 -3 8 -4 15 -2 15 2
0 9 -7 16 -15z m-310 -10 c0 -8 -2 -15 -4 -15 -2 0 -6 7 -10 15 -3 8 -1 15 4
15 6 0 10 -7 10 -15z m46 -12 c-10 -10 -19 5 -10 18 6 11 8 11 12 0 2 -7 1
-15 -2 -18z m58 11 c3 -8 2 -12 -4 -9 -6 3 -10 10 -10 16 0 14 7 11 14 -7z
m50 0 c3 -8 2 -12 -4 -9 -6 3 -10 10 -10 16 0 14 7 11 14 -7z m54 -9 c-3 -3
-9 2 -12 12 -6 14 -5 15 5 6 7 -7 10 -15 7 -18z m52 10 c0 -8 -2 -15 -4 -15
-2 0 -6 7 -10 15 -3 8 -1 15 4 15 6 0 10 -7 10 -15z m-1570 -35 c0 -5 -2 -10
-4 -10 -3 0 -8 5 -11 10 -3 6 -1 10 4 10 6 0 11 -4 11 -10z m40 0 c0 -5 -2
-10 -4 -10 -3 0 -8 5 -11 10 -3 6 -1 10 4 10 6 0 11 -4 11 -10z m40 -30 c0 -5
-5 -10 -11 -10 -5 0 -7 5 -4 10 3 6 8 10 11 10 2 0 4 -4 4 -10z m85 -70 c3 -5
1 -10 -4 -10 -6 0 -11 5 -11 10 0 6 2 10 4 10 3 0 8 -4 11 -10z m-360 -10 c3
-5 1 -10 -4 -10 -6 0 -11 5 -11 10 0 6 2 10 4 10 3 0 8 -4 11 -10z m145 -120
c0 -5 -7 -7 -15 -4 -8 4 -15 8 -15 10 0 2 7 4 15 4 8 0 15 -4 15 -10z m510
-90 c0 -5 -4 -10 -10 -10 -5 0 -10 5 -10 10 0 6 5 10 10 10 6 0 10 -4 10 -10z
m-360 -20 c0 -5 -4 -10 -10 -10 -5 0 -10 5 -10 10 0 6 5 10 10 10 6 0 10 -4
10 -10z"/>
<path d="M1670 3979 c0 -5 5 -7 10 -4 6 3 10 8 10 11 0 2 -4 4 -10 4 -5 0 -10
-5 -10 -11z"/>
<path d="M1997 3896 c-39 -14 -69 -36 -99 -71 -32 -37 -18 -39 20 -3 41 40 70
57 122 74 22 7 27 12 15 13 -11 0 -37 -6 -58 -13z"/>
<path d="M2035 3852 c-22 -10 -43 -20 -47 -21 -44 -11 -78 -62 -78 -116 0 -49
34 -109 79 -138 36 -24 109 -53 124 -49 4 1 7 -2 7 -8 0 -24 -91 5 -150 47
-45 33 -66 64 -75 115 -9 45 -25 41 -25 -6 0 -37 42 -102 87 -133 15 -11 53
-30 83 -42 30 -12 42 -19 25 -16 -58 11 -139 59 -170 102 -33 46 -45 52 -45
24 0 -43 84 -112 176 -144 44 -16 121 -27 202 -28 29 -1 50 -4 47 -7 -8 -9
-136 -3 -197 8 -66 13 -155 54 -192 88 l-29 27 6 -35 c9 -58 25 -89 57 -108
27 -17 60 -25 230 -60 44 -9 44 -10 10 -11 -43 -1 -184 25 -211 40 -37 20 -39
4 -5 -44 53 -74 138 -147 175 -150 12 -1 21 -6 21 -13 0 -15 93 -44 144 -44
43 0 130 37 128 55 0 6 6 14 14 18 49 27 61 196 22 302 -12 33 -29 67 -38 75
-9 8 -15 20 -13 27 2 6 -9 26 -25 42 -27 29 -34 31 -98 31 -115 0 -191 31
-180 74 3 13 2 16 -5 9 -29 -29 18 -77 91 -93 l45 -9 -48 4 c-57 6 -82 17
-103 50 -15 23 -15 27 0 50 18 27 69 41 116 31 17 -3 30 -2 30 3 0 24 -93 28
-145 7 -103 -43 -72 -148 54 -187 20 -6 83 -13 141 -16 138 -7 155 -27 27 -31
-148 -5 -266 27 -302 82 -28 43 -29 87 -3 126 46 68 140 88 240 50 67 -25 76
-17 13 11 -68 30 -159 35 -210 11z m-98 -144 c-3 -8 -6 -5 -6 6 -1 11 2 17 5
13 3 -3 4 -12 1 -19z m11 -43 c-3 -3 -9 2 -12 12 -6 14 -5 15 5 6 7 -7 10 -15
7 -18z m325 -12 c-7 -2 -21 -2 -30 0 -10 3 -4 5 12 5 17 0 24 -2 18 -5z m-88
-144 c16 -7 13 -8 -13 -5 -19 3 -36 7 -40 10 -9 9 31 6 53 -5z m58 -6 c-7 -2
-19 -2 -25 0 -7 3 -2 5 12 5 14 0 19 -2 13 -5z m-85 -30 c-10 -2 -26 -2 -35 0
-10 3 -2 5 17 5 19 0 27 -2 18 -5z m260 -40 c-15 -2 -42 -2 -60 0 -18 2 -6 4
27 4 33 0 48 -2 33 -4z m-178 -83 c0 -5 -4 -10 -10 -10 -5 0 -10 5 -10 10 0 6
5 10 10 10 6 0 10 -4 10 -10z m-183 -96 c-3 -3 -12 -4 -19 -1 -8 3 -5 6 6 6
11 1 17 -2 13 -5z"/>
<path d="M1730 3829 c-7 -11 -10 -23 -7 -25 2 -2 9 7 15 21 14 30 7 33 -8 4z"/>
<path d="M2335 3775 c16 -13 32 -22 34 -19 7 6 -40 44 -54 43 -5 0 3 -11 20
-24z"/>
<path d="M2270 3780 c8 -6 24 -15 35 -21 16 -8 15 -6 -4 10 -13 12 -28 21 -35
21 -6 0 -4 -5 4 -10z"/>
<path d="M2113 3754 c-13 -34 63 -64 161 -64 51 0 57 2 46 15 -7 9 -29 15 -54
15 -55 0 -116 18 -123 36 -7 19 -22 18 -30 -2z"/>
<path d="M2185 3760 c11 -5 27 -9 35 -9 13 -1 13 0 0 9 -8 5 -24 9 -35 9 l-20
0 20 -9z"/>
<path d="M2355 3710 c10 -11 20 -18 23 -15 7 6 -18 35 -31 35 -5 0 -2 -9 8
-20z"/>
<path d="M2390 3722 c0 -5 7 -13 16 -16 10 -4 14 -1 12 6 -5 15 -28 23 -28 10z"/>
<path d="M1680 3639 c0 -46 5 -91 10 -99 6 -10 8 17 6 78 -4 118 -16 133 -16
21z"/>
<path d="M1784 3665 c-10 -69 3 -173 20 -154 2 2 1 27 -3 54 -3 28 -4 69 0 93
3 24 2 45 -2 48 -4 2 -11 -16 -15 -41z"/>
<path d="M2480 3690 c0 -6 7 -10 15 -10 8 0 15 2 15 4 0 2 -7 6 -15 10 -8 3
-15 1 -15 -4z"/>
<path d="M2454 3640 c20 -28 36 -54 36 -59 0 -16 27 -61 33 -55 7 8 -45 110
-72 142 -35 41 -33 23 3 -28z"/>
<path d="M2416 3635 c9 -14 20 -25 25 -25 5 0 2 11 -7 25 -9 14 -20 25 -25 25
-5 0 -2 -11 7 -25z"/>
<path d="M1813 3595 c0 -22 2 -30 4 -17 2 12 2 30 0 40 -3 9 -5 -1 -4 -23z"/>
<path d="M1715 3556 c3 -27 12 -63 20 -79 8 -17 15 -35 15 -40 0 -25 48 -102
75 -120 17 -10 22 -17 12 -13 -28 9 43 -81 75 -95 16 -6 36 -9 47 -6 10 2 27
0 37 -6 19 -10 19 -10 0 11 -21 24 -42 30 -30 10 4 -7 -2 -5 -14 5 -11 11 -18
25 -15 33 3 8 0 14 -7 14 -6 0 -8 -4 -5 -10 3 -5 1 -10 -4 -10 -6 0 -11 5 -11
10 0 6 -11 16 -25 22 -18 8 -22 14 -13 19 7 4 19 2 27 -4 10 -8 8 -1 -5 21
-27 47 -52 67 -30 25 9 -18 14 -33 12 -33 -11 0 -63 87 -70 115 -4 17 -25 57
-46 90 -21 33 -41 67 -44 75 -3 8 -4 -7 -1 -34z"/>
<path d="M2450 3580 c6 -14 13 -33 16 -42 4 -10 11 -18 16 -18 14 0 -1 42 -24
65 -19 20 -19 20 -8 -5z"/>
<path d="M1586 3541 c3 -13 7 -29 8 -35 1 -6 12 -38 25 -71 29 -77 69 -136
106 -155 17 -8 32 -18 35 -22 8 -10 62 -29 58 -21 -12 27 -82 117 -129 165
-30 31 -68 81 -83 110 -15 29 -24 42 -20 29z"/>
<path d="M1816 3525 c8 -37 14 -45 14 -19 0 10 -5 26 -10 34 -8 11 -9 7 -4
-15z"/>
<path d="M2488 3480 c2 -16 8 -30 13 -30 10 0 12 21 3 44 -10 27 -21 18 -16
-14z"/>
<path d="M2520 3500 c0 -5 5 -10 10 -10 6 0 10 5 10 10 0 6 -4 10 -10 10 -5 0
-10 -4 -10 -10z"/>
<path d="M2530 3464 c0 -8 5 -12 10 -9 6 4 8 11 5 16 -9 14 -15 11 -15 -7z"/>
<path d="M1721 3440 c0 -15 38 -91 39 -79 0 4 -9 26 -20 50 -11 24 -19 37 -19
29z"/>
<path d="M1810 3445 c0 -12 32 -67 36 -62 7 6 -13 54 -25 62 -6 3 -11 3 -11 0z"/>
<path d="M2507 3376 c6 -72 -4 -159 -18 -151 -5 3 -6 -1 -3 -9 8 -21 -17 -54
-38 -50 -10 1 -20 -2 -23 -6 -3 -5 4 -7 15 -5 15 3 20 -1 20 -18 l0 -21 20 20
c39 39 60 175 43 277 -9 54 -22 25 -16 -37z"/>
<path d="M2546 3400 c9 -61 6 -157 -6 -200 -13 -47 -13 -67 1 -53 18 18 30 84
28 153 -3 112 -4 119 -17 132 -11 11 -12 5 -6 -32z"/>
<path d="M1861 3400 c14 -31 19 -36 19 -24 0 6 -7 19 -16 30 -14 18 -14 18 -3
-6z"/>
<path d="M1317 3320 c47 -93 199 -251 280 -292 29 -14 50 -28 47 -30 -2 -3 23
-19 55 -37 57 -30 66 -32 148 -29 l88 3 -49 19 c-27 10 -77 38 -110 61 -34 24
-102 61 -153 82 -152 66 -211 115 -326 273 -10 14 -1 -9 20 -50z"/>
<path d="M1910 3316 c0 -2 8 -10 18 -17 15 -13 16 -12 3 4 -13 16 -21 21 -21
13z"/>
<path d="M1820 3273 c0 -5 10 -18 23 -29 l22 -19 -20 25 c-11 14 -21 27 -22
29 -2 2 -3 0 -3 -6z"/>
<path d="M1758 3223 c23 -42 130 -102 164 -91 15 5 -73 77 -109 87 -15 5 -36
12 -47 16 -16 7 -17 5 -8 -12z"/>
<path d="M2010 3216 c0 -2 8 -10 18 -17 15 -13 16 -12 3 4 -13 16 -21 21 -21
13z"/>
<path d="M1604 3201 c8 -12 66 -44 71 -39 2 2 -15 14 -37 27 -22 12 -37 18
-34 12z"/>
<path d="M1970 3156 c31 -24 55 -36 78 -36 17 0 32 2 32 4 0 10 -88 54 -120
61 l-35 7 45 -36z"/>
<path d="M1610 3166 c0 -2 8 -10 18 -17 15 -13 16 -12 3 4 -13 16 -21 21 -21
13z"/>
<path d="M2040 3166 c0 -3 13 -12 28 -20 24 -13 29 -13 29 -1 0 8 -4 12 -8 9
-5 -3 -18 0 -29 6 -11 6 -20 8 -20 6z"/>
<path d="M1662 3131 c-11 -6 -10 -10 5 -15 10 -4 18 -6 18 -4 0 1 16 -7 36
-20 37 -23 75 -30 64 -12 -8 13 8 13 21 0 13 -13 74 -31 74 -22 0 4 -10 13
-22 21 -28 17 -90 32 -82 20 9 -14 -5 -10 -34 10 -35 25 -64 33 -80 22z"/>
<path d="M1767 3129 c7 -7 15 -10 18 -7 3 3 -2 9 -12 12 -14 6 -15 5 -6 -5z"/>
<path d="M2740 3130 c0 -5 -3 -9 -7 -9 -22 4 -43 -2 -43 -11 0 -5 14 -10 30
-10 23 0 30 4 30 20 0 11 -2 20 -5 20 -3 0 -5 -4 -5 -10z"/>
<path d="M2621 3098 c-5 -13 -16 -40 -24 -60 -16 -38 -16 -38 8 -38 18 0 25 7
30 30 4 17 10 28 13 26 4 -2 7 11 8 30 1 39 -22 47 -35 12z"/>
<path d="M2425 3102 c-32 -7 -49 -24 -33 -33 9 -6 3 -9 -17 -10 -73 -2 -142
-13 -152 -23 -5 -5 30 -6 75 -4 69 3 87 7 101 23 9 11 23 21 31 23 20 5 34 19
23 24 -4 3 -17 3 -28 0z"/>
<path d="M2496 3094 c-5 -12 -2 -15 10 -10 8 3 18 6 20 6 3 0 2 5 -1 10 -9 15
-22 12 -29 -6z"/>
<path d="M2566 3102 c-6 -10 30 -9 40 1 4 4 -2 7 -14 7 -11 0 -23 -4 -26 -8z"/>
<path d="M2323 3083 c9 -2 23 -2 30 0 6 3 -1 5 -18 5 -16 0 -22 -2 -12 -5z"/>
<path d="M1965 3070 c-3 -5 -5 -10 -3 -11 2 0 23 -2 48 -5 42 -4 44 -4 26 11
-22 17 -62 20 -71 5z"/>
<path d="M2133 3064 c21 -11 40 -13 70 -8 38 7 40 8 17 15 -14 4 -45 7 -70 8
l-45 0 28 -15z"/>
<path d="M2568 3071 c-18 -7 -73 -81 -59 -81 4 0 11 3 15 7 4 4 15 8 24 8 9 0
18 9 20 20 l4 20 -17 -20 c-16 -20 -16 -20 -5 3 6 12 17 22 25 22 16 0 29 17
18 23 -5 2 -16 2 -25 -2z"/>
<path d="M2453 3046 c-46 -38 -71 -47 -146 -53 -60 -4 -85 -1 -148 21 -56 19
-83 23 -105 17 l-29 -8 28 -12 c16 -6 33 -8 39 -5 7 4 8 2 4 -4 -5 -8 0 -11
11 -10 37 3 64 -2 58 -11 -12 -21 65 -25 165 -10 79 12 132 28 125 38 -2 5 7
14 20 21 28 15 41 40 20 40 -7 0 -26 -11 -42 -24z"/>
<path d="M1790 3047 c0 -9 107 -67 124 -67 9 0 16 -4 16 -10 0 -9 62 -40 81
-40 20 0 7 16 -23 28 -18 7 -40 17 -48 22 -96 58 -150 81 -150 67z"/>
<path d="M1897 3033 c-9 -9 70 -53 95 -53 12 0 26 -7 32 -15 6 -9 29 -18 51
-21 l40 -5 -35 17 c-19 10 -65 32 -101 51 -73 36 -73 36 -82 26z"/>
<path d="M2815 2980 c-2 -3 5 -7 16 -7 10 -1 19 2 19 6 0 9 -29 10 -35 1z"/>
<path d="M3060 2970 c0 -5 5 -10 11 -10 5 0 7 5 4 10 -3 6 -8 10 -11 10 -2 0
-4 -4 -4 -10z"/>
<path d="M2533 2920 c-29 -17 -53 -35 -53 -40 0 -6 -3 -9 -7 -8 -5 1 -32 -6
-62 -15 -66 -21 -146 -21 -266 -3 -49 7 -103 12 -120 11 -16 -2 -39 -4 -50 -4
-19 -2 -19 -2 -2 -12 10 -6 29 -8 43 -5 17 5 24 2 24 -8 0 -17 50 -30 82 -21
16 4 19 3 10 -3 -10 -7 -5 -11 20 -15 94 -17 166 -18 233 -2 39 9 82 17 96 16
19 0 41 14 73 45 25 26 46 50 46 55 0 4 -21 -14 -46 -41 -26 -28 -53 -50 -60
-50 -7 0 9 20 35 45 27 25 51 55 54 65 3 11 4 20 4 20 -1 0 -26 -14 -54 -30z"/>
<path d="M2639 2933 c-25 -31 -79 -111 -79 -118 0 -3 4 -3 10 0 5 3 24 8 42 9
60 7 84 28 76 67 -2 8 4 13 13 13 13 -1 14 3 5 22 -13 28 -21 30 -36 7 -11
-17 -11 -17 -6 0 3 9 2 17 -3 17 -4 0 -14 -8 -22 -17z"/>
<path d="M2433 2904 c-18 -7 -58 -17 -90 -20 -72 -8 -104 -23 -51 -24 56 0
130 19 158 40 29 23 27 23 -17 4z"/>
<path d="M1935 2890 l-60 -7 62 -1 c34 -1 65 3 68 8 3 6 3 9 -2 8 -4 -1 -35
-4 -68 -8z"/>
<path d="M2208 2873 c6 -2 18 -2 25 0 6 3 1 5 -13 5 -14 0 -19 -2 -12 -5z"/>
<path d="M1918 2833 c7 -3 16 -2 19 1 4 3 -2 6 -13 5 -11 0 -14 -3 -6 -6z"/>
<path d="M2000 2804 c70 -19 133 -32 190 -39 65 -7 39 2 -75 26 -129 27 -190
34 -115 13z"/>
<path d="M2890 2769 c0 -5 5 -7 10 -4 6 3 10 8 10 11 0 2 -4 4 -10 4 -5 0 -10
-5 -10 -11z"/>
<path d="M3240 2770 c0 -5 5 -10 11 -10 5 0 7 5 4 10 -3 6 -8 10 -11 10 -2 0
-4 -4 -4 -10z"/>
<path d="M3050 2762 c0 -4 9 -8 20 -9 11 -1 20 2 20 8 0 5 -9 9 -20 9 -11 0
-20 -4 -20 -8z"/>
<path d="M3296 2757 c3 -10 9 -15 12 -12 3 3 0 11 -7 18 -10 9 -11 8 -5 -6z"/>
<path d="M2215 2715 c-39 -10 -43 -13 -20 -13 17 0 48 5 70 13 51 17 16 17
-50 0z"/>
<path d="M2394 2680 c-93 -23 -148 -42 -146 -49 1 -8 -7 -9 -24 -5 -19 5 -25
4 -20 -5 11 -17 91 -14 106 4 7 8 28 15 46 15 19 0 60 9 91 20 31 11 60 17 64
14 9 -5 58 26 59 37 0 10 -25 6 -176 -31z"/>
<path d="M2060 2673 c-14 -3 -29 -9 -35 -15 -13 -12 46 1 60 13 5 5 7 8 5 8
-3 -1 -16 -4 -30 -6z"/>
<path d="M1963 2643 c9 -2 23 -2 30 0 6 3 -1 5 -18 5 -16 0 -22 -2 -12 -5z"/>
<path d="M2840 2593 c-42 -4 -64 -18 -54 -34 2 -4 13 -5 24 -2 11 3 17 9 15
14 -3 4 4 7 15 6 11 -1 20 -5 20 -9 0 -4 16 -8 36 -8 28 0 35 3 32 18 -3 18
-19 21 -88 15z"/>
<path d="M1905 2583 c-11 -3 -24 -9 -29 -14 -5 -5 5 -4 24 1 51 15 55 25 5 13z"/>
<path d="M2702 2579 c-30 -5 -61 -14 -70 -20 -14 -9 -13 -10 6 -5 19 4 21 2
11 -10 -7 -9 -8 -14 -1 -14 6 0 15 6 19 14 4 8 22 17 38 21 23 5 26 4 15 -4
-13 -9 -12 -11 6 -11 11 0 25 5 32 12 13 13 16 29 5 27 -5 -1 -32 -5 -61 -10z"/>
<path d="M1750 2524 c-30 -13 -47 -24 -38 -24 20 0 98 29 113 42 16 15 -18 7
-75 -18z"/>
<path d="M2426 2509 c-123 -40 -158 -57 -96 -44 36 7 242 74 249 81 13 12 -49
-2 -153 -37z"/>
<path d="M2826 2513 c-4 -4 -22 -6 -41 -5 -26 2 -40 -4 -59 -25 -14 -15 -26
-31 -26 -34 0 -4 19 -3 43 3 193 44 465 1 635 -100 124 -75 222 -187 270 -312
61 -155 49 -338 -33 -487 -37 -68 -61 -98 -119 -152 -21 -20 -44 -41 -51 -48
-7 -7 -41 -28 -77 -47 -231 -127 -519 -111 -740 42 -116 80 -219 233 -233 345
-6 46 12 167 32 225 4 11 -6 6 -26 -12 -122 -115 -16 -437 195 -587 210 -151
444 -190 678 -113 209 68 372 227 436 424 29 87 31 102 34 193 2 55 7 82 17
89 11 8 11 9 -2 5 -14 -5 -18 4 -24 41 -8 59 -72 197 -117 253 -97 124 -216
208 -364 257 -117 39 -321 63 -336 39 -6 -9 -8 -8 -8 2 0 11 -3 11 -17 0 -11
-10 -14 -10 -9 -1 5 8 -1 12 -22 12 -16 0 -32 -3 -36 -7z"/>
<path d="M1888 2500 c-97 -12 -125 -33 -33 -25 105 9 145 16 145 26 0 10 -15
10 -112 -1z"/>
<path d="M2040 2498 c-19 -4 32 -5 114 -3 82 3 151 7 155 10 8 8 -226 2 -269
-7z"/>
<path d="M2665 2485 c-16 -8 -46 -28 -65 -46 -34 -31 -35 -31 -8 -25 50 11 73
24 102 55 32 34 21 40 -29 16z"/>
<path d="M1700 2464 l-25 -15 25 7 c14 3 29 10 35 15 15 14 -7 10 -35 -7z"/>
<path d="M2608 2474 c-4 -3 -17 -7 -30 -9 -25 -3 -182 -60 -208 -75 -28 -17
12 -12 73 9 32 11 57 16 57 11 0 -6 9 -6 23 -1 12 5 21 14 20 20 -2 6 3 8 11
5 7 -3 26 6 42 20 16 14 26 26 23 26 -3 0 -8 -3 -11 -6z"/>
<path d="M2246 2412 c-3 -5 -18 -7 -33 -5 -16 3 -36 -3 -48 -12 -19 -16 -19
-16 10 -9 17 3 45 8 64 9 39 4 68 25 34 25 -12 0 -24 -4 -27 -8z"/>
<path d="M2865 2412 c-24 -2 -69 -11 -145 -27 -3 0 -23 -4 -44 -9 -48 -9 -278
-118 -303 -143 -10 -10 -38 -31 -61 -47 -23 -16 -42 -32 -42 -37 0 -9 34 2 71
22 11 6 45 17 75 25 50 13 96 34 181 83 18 10 48 34 65 53 34 36 78 56 78 35
-1 -15 -50 -52 -50 -37 0 6 -5 8 -10 5 -6 -4 -7 -11 -4 -17 5 -7 2 -8 -6 -3
-9 6 -11 4 -5 -4 8 -14 56 -8 104 11 14 6 33 12 41 12 8 1 16 9 18 19 2 12 -3
17 -19 17 -29 0 -19 10 13 14 13 1 29 6 36 10 7 4 12 2 12 -4 0 -6 -7 -13 -15
-16 -8 -4 -15 -15 -15 -26 0 -16 4 -19 23 -13 28 9 72 7 172 -6 253 -32 435
-175 490 -384 97 -373 -328 -712 -695 -554 -27 12 -50 28 -50 35 0 8 -18 25
-39 38 -22 14 -58 43 -82 66 -44 42 -66 47 -33 7 10 -13 4 -7 -15 12 -93 99
-94 207 -2 301 13 14 7 1 -14 -28 -56 -79 -58 -149 -7 -230 23 -36 24 -19 2
29 -28 63 -26 107 10 161 16 24 39 53 51 64 12 10 3 -8 -20 -40 -34 -49 -41
-68 -41 -105 0 -74 62 -168 140 -214 42 -25 38 -14 -16 44 -39 41 -48 57 -52
97 -4 44 0 53 43 117 69 102 95 123 36 30 -27 -44 -52 -93 -56 -110 -5 -26 -4
-27 4 -7 15 33 19 27 13 -24 -7 -61 28 -127 41 -76 3 10 5 6 6 -10 1 -31 17
-38 24 -10 3 11 5 8 6 -9 2 -49 124 -84 264 -77 78 5 103 11 161 39 84 40 154
108 193 186 24 51 28 69 28 148 0 82 -3 97 -33 157 -76 154 -253 247 -451 235
-47 -3 -95 -8 -106 -10 -85 -20 -106 -31 -171 -89 -38 -35 -93 -79 -121 -98
-42 -29 -83 -81 -83 -106 0 -3 46 30 103 74 116 88 133 100 123 84 -3 -5 -1
-12 5 -14 6 -2 -24 -35 -67 -73 -163 -144 -180 -173 -171 -281 14 -176 198
-357 423 -414 87 -22 214 -26 296 -9 103 22 281 122 311 175 4 8 13 14 18 14
19 0 -29 -51 -86 -91 -30 -22 -55 -42 -55 -45 0 -7 16 3 70 44 44 33 66 54
105 102 l20 25 -22 -19 c-32 -27 -29 -15 17 55 37 57 80 172 80 213 0 9 7 16
15 16 12 0 15 12 13 58 l-1 57 -6 -55 -6 -55 -7 80 c-5 57 -3 82 5 87 8 5 6 8
-5 8 -10 0 -18 8 -18 18 0 9 -14 46 -30 80 -34 72 -35 76 -17 66 7 -4 9 -3 4
2 -5 5 -14 9 -20 9 -7 0 -11 8 -11 18 1 9 -2 14 -7 11 -12 -7 -74 66 -72 85 1
9 0 11 -3 4 -4 -9 -22 0 -57 26 -127 95 -262 136 -467 144 -25 1 -58 1 -75 -1z
m52 -28 c-3 -3 -12 -4 -19 -1 -8 3 -5 6 6 6 11 1 17 -2 13 -5z m-302 -64 c-3
-5 -13 -10 -21 -10 -8 0 -32 -11 -54 -25 -22 -14 -40 -22 -40 -17 0 8 98 62
113 62 5 0 5 -4 2 -10z m-125 -55 c0 -2 -13 -11 -30 -20 -38 -19 -40 -11 -2 9
31 17 32 18 32 11z m270 -138 c0 -2 -10 -12 -22 -23 l-23 -19 19 23 c18 21 26
27 26 19z m75 -207 c-9 -16 -18 -30 -21 -30 -2 0 2 14 11 30 9 17 18 30 21 30
2 0 -2 -13 -11 -30z m-300 -55 c-53 -66 -59 -85 -53 -173 5 -66 5 -66 -8 -27
-25 80 -10 138 53 206 25 27 47 49 49 49 3 0 -16 -25 -41 -55z m195 -156 c-7
-11 -14 -18 -17 -15 -3 3 0 12 7 21 18 21 23 19 10 -6z m-226 -105 c3 -8 2
-12 -4 -9 -6 3 -10 10 -10 16 0 14 7 11 14 -7z m41 -64 c10 -11 16 -20 13 -20
-3 0 -13 9 -23 20 -10 11 -16 20 -13 20 3 0 13 -9 23 -20z m155 -66 c0 -2 -9
0 -20 6 -11 6 -20 13 -20 16 0 2 9 0 20 -6 11 -6 20 -13 20 -16z"/>
<path d="M2413 2380 c-34 -10 -64 -15 -67 -12 -3 3 -6 0 -6 -7 0 -7 8 -10 18
-7 9 2 43 12 75 20 31 9 57 19 57 21 0 7 -8 6 -77 -15z"/>
<path d="M2155 2371 c-50 -6 -119 -41 -82 -41 10 0 27 5 38 10 11 6 35 12 54
14 20 1 41 8 47 14 7 7 8 11 3 11 -6 -1 -32 -5 -60 -8z"/>
<path d="M2316 2329 c-73 -15 -98 -26 -142 -60 -29 -22 -59 -48 -66 -57 -11
-14 -10 -15 7 -8 11 5 53 19 93 32 60 20 212 99 212 111 0 4 -5 4 -104 -18z"/>
<path d="M2110 2320 c-8 -5 -10 -10 -5 -10 6 0 17 5 25 10 8 5 11 10 5 10 -5
0 -17 -5 -25 -10z"/>
<path d="M2886 2311 c-17 -19 -20 -19 -31 -5 -6 9 -18 14 -26 11 -10 -4 -9 -6
4 -6 9 -1 17 -5 17 -11 0 -5 -6 -7 -14 -4 -8 3 -16 2 -19 -3 -3 -5 49 -9 116
-9 119 0 161 -4 202 -19 83 -30 106 -40 150 -67 135 -82 215 -221 215 -375 0
-45 -4 -73 -11 -73 -5 0 -8 -4 -4 -10 7 -11 -4 -60 -14 -60 -9 0 -7 37 1 46 4
3 4 12 1 20 -3 8 -1 14 4 14 5 0 8 25 5 58 -2 31 -4 72 -5 90 0 17 -3 32 -7
32 -4 0 -13 19 -21 43 -13 41 -82 135 -124 169 -49 40 -158 90 -227 103 -120
23 -351 5 -333 -26 4 -5 1 -9 -6 -9 -7 0 -10 -2 -7 -5 3 -3 23 0 44 7 22 8 75
15 119 17 46 2 83 8 87 14 5 8 8 8 8 1 0 -6 30 -16 66 -23 147 -27 285 -127
342 -248 23 -50 27 -71 27 -153 0 -88 -3 -101 -32 -160 -39 -77 -77 -121 -145
-166 -112 -76 -286 -96 -423 -50 -62 22 -67 22 -46 5 27 -22 106 -47 176 -55
59 -7 222 21 242 41 7 8 20 12 28 9 9 -4 15 0 15 10 0 10 5 13 17 9 12 -5 14
-3 8 7 -5 9 -4 11 3 6 7 -4 12 -2 12 4 0 6 3 9 8 6 4 -2 16 2 27 10 10 8 15
14 9 14 -5 0 2 6 16 13 14 8 24 19 22 26 -1 7 2 10 8 6 9 -6 14 8 11 28 -1 5
3 6 9 2 9 -6 14 7 11 28 0 4 4 7 10 7 5 0 8 4 5 8 -2 4 4 13 14 20 17 10 18 9
13 -6 -22 -59 -101 -146 -171 -189 -123 -73 -290 -95 -423 -54 -42 13 -58 16
-48 7 47 -45 235 -61 340 -30 220 65 361 241 360 449 0 85 -19 155 -63 227
-36 58 -126 148 -148 148 -6 0 -10 5 -10 10 0 6 -7 10 -15 10 -8 0 -15 5 -15
10 0 6 -6 10 -12 10 -7 0 -35 11 -63 25 -30 14 -59 22 -72 18 -13 -3 -23 -1
-23 5 0 6 -14 8 -32 6 -23 -3 -29 -2 -19 5 11 7 8 9 -10 9 -13 0 -49 3 -79 7
-48 6 -57 5 -74 -14z m91 3 c-3 -3 -12 -4 -19 -1 -8 3 -5 6 6 6 11 1 17 -2 13
-5z"/>
<path d="M2024 2300 c-12 -5 -25 -13 -28 -19 -6 -9 62 14 73 25 8 7 -23 3 -45
-6z"/>
<path d="M2645 2300 c-3 -5 -1 -10 4 -10 6 0 11 5 11 10 0 6 -2 10 -4 10 -3 0
-8 -4 -11 -10z"/>
<path d="M2682 2283 c-23 -8 -40 -19 -37 -23 3 -5 -14 -19 -37 -31 -24 -12
-56 -30 -71 -41 -15 -11 -42 -24 -61 -29 -60 -16 -157 -134 -190 -230 -8 -24
-14 -44 -13 -46 2 -1 29 43 62 97 32 55 61 98 63 95 3 -3 -8 -23 -23 -45 -15
-22 -26 -43 -23 -46 6 -5 42 28 116 109 52 55 133 110 205 139 50 20 107 59
65 45 -26 -9 -22 2 5 13 40 16 -12 10 -61 -7z m23 -13 c-3 -5 -14 -10 -23 -9
-14 0 -13 2 3 9 27 11 27 11 20 0z m-235 -124 c0 -3 -13 -20 -30 -38 -16 -18
-30 -28 -30 -24 0 5 12 22 28 37 28 29 32 32 32 25z"/>
<path d="M2770 2285 c-7 -9 -10 -18 -7 -21 3 -3 10 4 17 15 13 25 8 27 -10 6z"/>
<path d="M2078 2243 c-56 -49 -121 -123 -126 -146 -2 -6 11 6 29 28 18 22 61
68 96 103 35 34 62 62 60 62 -2 0 -28 -21 -59 -47z"/>
<path d="M3590 2276 c0 -2 7 -7 16 -10 8 -3 12 -2 9 4 -6 10 -25 14 -25 6z"/>
<path d="M1909 2243 c-13 -16 -12 -17 4 -4 9 7 17 15 17 17 0 8 -8 3 -21 -13z"/>
<path d="M2720 2225 c-7 -8 -16 -13 -20 -10 -26 16 -240 -125 -240 -157 0 -18
191 103 211 134 3 5 12 6 20 3 9 -3 25 5 39 20 13 14 19 25 13 25 -6 0 -16 -7
-23 -15z"/>
<path d="M2360 2150 c-8 -5 -10 -10 -5 -10 6 0 17 5 25 10 8 5 11 10 5 10 -5
0 -17 -5 -25 -10z"/>
<path d="M2232 2089 c-18 -12 -31 -24 -28 -26 2 -3 22 7 43 21 45 31 32 35
-15 5z"/>
<path d="M2462 2033 c-23 -13 -47 -34 -54 -46 -11 -21 -11 -21 16 -4 14 9 37
24 50 33 13 8 27 22 30 30 3 8 4 14 3 13 -1 -1 -21 -12 -45 -26z"/>
<path d="M2631 2026 c-18 -19 -56 -51 -84 -71 -55 -40 -93 -81 -103 -111 -3
-11 3 -7 13 9 25 35 44 53 113 104 61 45 119 103 104 103 -6 0 -25 -15 -43
-34z"/>
<path d="M3752 1970 c0 -14 2 -19 5 -12 2 6 2 18 0 25 -3 6 -5 1 -5 -13z"/>
<path d="M3632 1698 c-6 -23 -9 -44 -7 -46 2 -2 9 15 15 38 6 23 9 44 7 46 -2
3 -9 -14 -15 -38z"/>
<path d="M2042 1675 c0 -16 2 -22 5 -12 2 9 2 23 0 30 -3 6 -5 -1 -5 -18z"/>
<path d="M2052 1620 c0 -14 2 -19 5 -12 2 6 2 18 0 25 -3 6 -5 1 -5 -13z"/>
<path d="M3597 1598 c-10 -24 -27 -55 -39 -68 -12 -12 -15 -21 -8 -18 17 5 73
104 68 119 -2 7 -12 -8 -21 -33z"/>
<path d="M2061 1580 c0 -8 4 -24 9 -35 5 -13 9 -14 9 -5 0 8 -4 24 -9 35 -5
13 -9 14 -9 5z"/>
<path d="M3285 1304 c-27 -13 -39 -21 -25 -18 29 7 100 43 85 43 -5 0 -32 -12
-60 -25z"/>
<path d="M2320 1205 c35 -36 56 -49 27 -17 -10 10 -15 21 -13 23 3 2 -7 10
-22 17 -24 11 -23 9 8 -23z"/>
<path d="M2410 1135 c0 -6 9 -18 20 -28 21 -18 26 -12 10 13 -5 8 -10 11 -10
5 0 -5 -5 -3 -10 5 -5 8 -10 10 -10 5z"/>
<path d="M2930 920 c0 -5 5 -10 10 -10 6 0 10 5 10 10 0 6 -4 10 -10 10 -5 0
-10 -4 -10 -10z"/>
</g>
</svg>
